<!-- Generator: Adobe Illustrator 24.1.2, SVG Export Plug-In  -->
<svg version="1.1" xmlns="http://www.w3.org/2000/svg" xmlns:xlink="http://www.w3.org/1999/xlink" x="0px" y="0px" width="32.56px"
	 height="31.3px" viewBox="0 0 32.56 31.3" style="overflow:visible;enable-background:new 0 0 32.56 31.3;" xml:space="preserve">
<style type="text/css">
	.st0{fill:#4F007D;}
</style>
<defs>
</defs>
<path class="st0" d="M31.43,12.61c-0.33-0.56-0.65-1.09-0.82-1.61c-0.18-0.56-0.24-1.19-0.31-1.86c-0.1-1.07-0.21-2.18-0.85-3.05
	c-0.64-0.88-1.67-1.33-2.66-1.76c-0.61-0.27-1.19-0.52-1.66-0.86c-0.46-0.33-0.87-0.8-1.31-1.3c-0.72-0.82-1.46-1.66-2.51-2
	c-1.01-0.33-2.09-0.09-3.13,0.14c-0.64,0.14-1.3,0.29-1.91,0.29c-0.61,0-1.27-0.15-1.91-0.29c-1.04-0.23-2.12-0.47-3.13-0.14
	c-1.05,0.34-1.8,1.19-2.51,2c-0.44,0.5-0.85,0.97-1.31,1.3C7.27,3.58,7.08,3.7,6.87,3.81c-0.23,0.12-0.32,0.41-0.2,0.65
	c0.12,0.23,0.41,0.32,0.65,0.2c0.26-0.14,0.48-0.27,0.68-0.42C8.54,3.84,9,3.31,9.45,2.79c0.66-0.75,1.28-1.46,2.09-1.73
	c0.76-0.25,1.67-0.05,2.63,0.17c0.69,0.15,1.4,0.31,2.11,0.31c0.71,0,1.42-0.16,2.11-0.31c0.96-0.21,1.86-0.41,2.63-0.17
	c0.8,0.26,1.43,0.97,2.09,1.73c0.45,0.51,0.92,1.05,1.46,1.44c0.55,0.4,1.21,0.69,1.84,0.96c0.91,0.4,1.78,0.77,2.27,1.44
	c0.48,0.66,0.57,1.6,0.67,2.58c0.07,0.69,0.14,1.41,0.35,2.07c0.2,0.63,0.56,1.23,0.91,1.81c0.52,0.87,1,1.68,1,2.55
	c0,0.87-0.49,1.69-1,2.55c-0.35,0.58-0.7,1.18-0.91,1.81c-0.21,0.66-0.28,1.37-0.35,2.07c-0.1,0.99-0.18,1.92-0.67,2.58
	c-0.49,0.67-1.35,1.05-2.27,1.44c-0.63,0.27-1.29,0.56-1.84,0.96c-0.54,0.4-1.01,0.93-1.46,1.44c-0.66,0.75-1.28,1.46-2.09,1.73
	c-0.76,0.25-1.67,0.05-2.63-0.17c-0.69-0.15-1.4-0.31-2.11-0.31c-0.71,0-1.42,0.16-2.11,0.31c-0.96,0.21-1.86,0.41-2.63,0.17
	c-0.8-0.26-1.43-0.97-2.09-1.73C9,27.99,8.54,27.46,7.99,27.06c-0.55-0.4-1.21-0.69-1.84-0.96c-0.91-0.4-1.78-0.77-2.27-1.44
	C3.4,24,3.31,23.06,3.21,22.08c-0.07-0.69-0.14-1.41-0.35-2.07c-0.2-0.63-0.56-1.23-0.91-1.81c-0.52-0.87-1-1.68-1-2.55
	c0-0.87,0.49-1.69,1-2.55c0.35-0.58,0.7-1.18,0.91-1.81c0.21-0.66,0.28-1.37,0.35-2.07C3.31,8.24,3.4,7.3,3.88,6.64
	c0.28-0.38,0.69-0.7,1.35-1.03c0.24-0.12,0.33-0.4,0.21-0.64c-0.12-0.24-0.4-0.33-0.64-0.21c-0.54,0.27-1.22,0.66-1.7,1.32
	C2.47,6.95,2.37,8.06,2.26,9.13c-0.06,0.67-0.13,1.3-0.31,1.86c-0.17,0.53-0.49,1.06-0.82,1.61C0.58,13.55,0,14.52,0,15.65
	c0,1.13,0.58,2.1,1.14,3.04c0.33,0.56,0.65,1.09,0.82,1.61c0.18,0.56,0.24,1.19,0.31,1.86c0.1,1.07,0.21,2.18,0.85,3.05
	c0.64,0.88,1.67,1.33,2.66,1.76c0.61,0.27,1.19,0.52,1.66,0.86c0.46,0.33,0.87,0.8,1.31,1.3c0.72,0.82,1.46,1.66,2.51,2
	c0.36,0.12,0.72,0.16,1.09,0.16c0.68,0,1.37-0.15,2.04-0.3c0.64-0.14,1.3-0.29,1.91-0.29c0.61,0,1.27,0.15,1.91,0.29
	c1.04,0.23,2.12,0.47,3.13,0.14c1.05-0.34,1.8-1.19,2.51-2c0.44-0.5,0.85-0.97,1.31-1.3c0.47-0.34,1.05-0.59,1.66-0.86
	c0.99-0.43,2.02-0.87,2.66-1.76c0.64-0.87,0.74-1.98,0.85-3.05c0.06-0.67,0.13-1.3,0.31-1.86c0.17-0.53,0.49-1.06,0.82-1.61
	c0.56-0.94,1.14-1.91,1.14-3.04C32.56,14.52,31.99,13.55,31.43,12.61"/>
<path class="st0" d="M5.78,10.45C5.85,9.66,5.92,8.92,6.3,8.4c0.38-0.52,1.07-0.82,1.8-1.14C8.62,7.04,9.16,6.8,9.61,6.47
	c0.45-0.33,0.83-0.76,1.2-1.18c0.53-0.6,1.02-1.17,1.65-1.37c0.59-0.19,1.32-0.03,2.08,0.14c0.56,0.12,1.15,0.25,1.73,0.25
	c0.59,0,1.17-0.13,1.73-0.25c0.76-0.17,1.49-0.33,2.08-0.14c0.63,0.2,1.13,0.77,1.65,1.37c0.37,0.42,0.75,0.86,1.2,1.18
	c0.46,0.33,0.99,0.56,1.51,0.79c0.73,0.32,1.42,0.61,1.8,1.14c0.38,0.52,0.45,1.26,0.52,2.05c0.05,0.57,0.11,1.15,0.29,1.69
	c0.17,0.52,0.46,1.01,0.74,1.48c0.41,0.69,0.8,1.34,0.8,2.02c0,0.68-0.39,1.33-0.8,2.02c-0.28,0.47-0.57,0.97-0.74,1.48
	c-0.18,0.54-0.23,1.13-0.29,1.69c-0.08,0.79-0.15,1.53-0.52,2.05c-0.38,0.53-1.07,0.82-1.8,1.14c-0.52,0.22-1.06,0.46-1.51,0.79
	c-0.45,0.33-0.83,0.76-1.2,1.18c-0.53,0.6-1.02,1.17-1.65,1.37c-0.59,0.19-1.32,0.03-2.08-0.14c-0.56-0.13-1.15-0.25-1.73-0.25
	c-0.59,0-1.17,0.13-1.73,0.25c-0.77,0.17-1.49,0.33-2.08,0.14c-0.63-0.2-1.13-0.77-1.65-1.37c-0.37-0.42-0.75-0.86-1.2-1.18
	c-0.46-0.33-0.99-0.56-1.51-0.79c-0.73-0.32-1.42-0.61-1.8-1.14c-0.38-0.52-0.45-1.26-0.52-2.05c-0.05-0.57-0.11-1.15-0.29-1.69
	c-0.17-0.52-0.46-1.01-0.74-1.48c-0.41-0.69-0.8-1.34-0.8-2.02c0-0.68,0.39-1.33,0.8-2.02c0.28-0.47,0.57-0.97,0.74-1.48
	C5.67,11.6,5.72,11.01,5.78,10.45 M4.58,11.85c-0.14,0.42-0.39,0.84-0.66,1.29c-0.46,0.77-0.93,1.57-0.93,2.51
	c0,0.94,0.48,1.74,0.93,2.51c0.27,0.45,0.52,0.87,0.66,1.29c0.14,0.44,0.19,0.95,0.25,1.49c0.08,0.88,0.17,1.79,0.7,2.52
	c0.54,0.74,1.38,1.1,2.19,1.45c0.49,0.21,0.96,0.41,1.33,0.68c0.36,0.27,0.7,0.64,1.05,1.04c0.59,0.67,1.2,1.37,2.08,1.65
	c0.3,0.1,0.6,0.14,0.91,0.14c0.56,0,1.12-0.13,1.67-0.25c0.54-0.12,1.04-0.23,1.53-0.23c0.48,0,0.99,0.11,1.53,0.23
	c0.86,0.19,1.74,0.39,2.58,0.11c0.88-0.29,1.49-0.98,2.08-1.65c0.35-0.4,0.68-0.78,1.04-1.04c0.37-0.27,0.84-0.47,1.33-0.68
	c0.81-0.35,1.66-0.72,2.19-1.45c0.53-0.73,0.62-1.64,0.7-2.52c0.05-0.54,0.1-1.05,0.24-1.49c0.14-0.42,0.39-0.84,0.66-1.29
	c0.46-0.77,0.93-1.57,0.93-2.51c0-0.94-0.48-1.74-0.93-2.51c-0.27-0.45-0.52-0.87-0.66-1.29c-0.14-0.44-0.19-0.95-0.24-1.49
	c-0.08-0.88-0.17-1.79-0.7-2.52c-0.54-0.74-1.38-1.1-2.19-1.45c-0.49-0.21-0.96-0.41-1.33-0.68c-0.36-0.26-0.69-0.64-1.04-1.04
	c-0.59-0.67-1.2-1.37-2.08-1.65c-0.84-0.27-1.73-0.08-2.58,0.11c-0.54,0.12-1.04,0.23-1.53,0.23c-0.48,0-0.99-0.11-1.53-0.23
	c-0.86-0.19-1.74-0.39-2.58-0.11c-0.88,0.29-1.49,0.98-2.08,1.65C9.75,5.06,9.42,5.43,9.05,5.7C8.68,5.97,8.22,6.17,7.72,6.38
	C6.91,6.74,6.07,7.1,5.53,7.84C5,8.57,4.91,9.48,4.83,10.36C4.78,10.9,4.73,11.4,4.58,11.85z"/>
<path class="st0" d="M13.8,21.23c-0.03,0-0.06,0-0.08,0c-0.7-0.02-1.37-0.35-1.82-0.89l-2.37-2.85c-0.52-0.63-0.44-1.57,0.19-2.1
	l0.66-0.55c0.63-0.52,1.57-0.44,2.1,0.19l1.19,1.44c0.07,0.08,0.15,0.1,0.2,0.1c0.04,0,0.13-0.01,0.2-0.08c0,0,0.01-0.01,0.01-0.01
	l6.09-5.95c0.27-0.28,0.64-0.45,1.04-0.45c0.4-0.01,0.78,0.14,1.06,0.41l0.63,0.6c0.59,0.57,0.62,1.51,0.05,2.11
	c0,0-0.01,0.01-0.01,0.01l-3.24,3.2c-0.19,0.19-0.49,0.18-0.67,0c-0.19-0.19-0.18-0.49,0-0.67l3.23-3.19
	c0.2-0.21,0.19-0.55-0.02-0.75l-0.63-0.6c-0.1-0.1-0.24-0.15-0.38-0.15c-0.14,0-0.28,0.06-0.37,0.17c0,0-0.01,0.01-0.01,0.01
	l-6.09,5.95c-0.24,0.25-0.58,0.38-0.92,0.37c-0.35-0.01-0.68-0.17-0.9-0.44l-1.19-1.44c-0.19-0.23-0.53-0.26-0.75-0.07l-0.66,0.55
	c-0.23,0.19-0.26,0.53-0.07,0.75l2.37,2.85c0.28,0.33,0.68,0.53,1.12,0.55c0.43,0.02,0.85-0.16,1.15-0.47c0,0,0.01-0.01,0.01-0.01
	l2.67-2.64c0.19-0.19,0.49-0.18,0.67,0c0.19,0.19,0.18,0.49,0,0.67l-2.67,2.64C15.12,20.96,14.48,21.23,13.8,21.23"/>
</svg>
