<!-- Generator: Adobe Illustrator 24.1.2, SVG Export Plug-In  -->
<svg version="1.1" xmlns="http://www.w3.org/2000/svg" xmlns:xlink="http://www.w3.org/1999/xlink" x="0px" y="0px" width="31.12px"
	 height="31.12px" viewBox="0 0 31.12 31.12" style="overflow:visible;enable-background:new 0 0 31.12 31.12;"
	 xml:space="preserve">
<style type="text/css">
	.st0{fill:#4F007D;}
</style>
<defs>
</defs>
<path class="st0" d="M1.82,15.56c0-7.57,6.16-13.74,13.74-13.74c2.85,0,5.57,0.86,7.85,2.47h-1.77c-0.5,0-0.91,0.41-0.91,0.91
	c0,0.5,0.41,0.91,0.91,0.91h4.27c0.5,0,0.91-0.41,0.91-0.91V0.93c0-0.5-0.41-0.91-0.91-0.91c-0.5,0-0.91,0.41-0.91,0.91V3.2
	C22.31,1.12,19.02,0,15.56,0c-4.16,0-8.06,1.62-11,4.56C1.62,7.5,0,11.4,0,15.56c0,2.73,0.72,5.42,2.09,7.78
	c0.17,0.29,0.48,0.46,0.79,0.46c0.15,0,0.31-0.04,0.46-0.12c0.44-0.25,0.58-0.81,0.33-1.25C2.46,20.34,1.82,17.97,1.82,15.56"/>
<path class="st0" d="M29.03,7.78c-0.25-0.44-0.81-0.58-1.25-0.33c-0.44,0.25-0.58,0.81-0.33,1.25c1.2,2.08,1.84,4.46,1.84,6.87
	c0,7.57-6.16,13.74-13.74,13.74c-2.85,0-5.56-0.86-7.85-2.47h1.77c0.5,0,0.91-0.41,0.91-0.91c0-0.5-0.41-0.91-0.91-0.91H5.2
	c-0.5,0-0.91,0.41-0.91,0.91v4.27c0,0.5,0.41,0.91,0.91,0.91c0.5,0,0.91-0.41,0.91-0.91v-2.27c2.7,2.08,5.99,3.2,9.45,3.2
	c4.16,0,8.06-1.62,11-4.56c2.94-2.94,4.56-6.85,4.56-11C31.12,12.83,30.4,10.14,29.03,7.78"/>
<path class="st0" d="M20.32,14.58c0.07,0.32,0.1,0.65,0.1,0.98c0,0.33-0.03,0.66-0.1,0.98c-0.08,0.38,0.1,0.78,0.44,0.97l0.78,0.45
	l-0.91,1.58l-0.79-0.46c-0.34-0.2-0.77-0.15-1.06,0.11c-0.5,0.44-1.06,0.77-1.69,0.98c-0.37,0.12-0.62,0.47-0.62,0.87v0.91h-1.82
	v-0.91c0-0.39-0.25-0.74-0.62-0.87c-0.62-0.21-1.19-0.54-1.69-0.98c-0.29-0.26-0.72-0.3-1.06-0.11l-0.79,0.46l-0.91-1.58l0.78-0.45
	c0.34-0.2,0.52-0.59,0.44-0.97c-0.06-0.32-0.1-0.65-0.1-0.98c0-0.33,0.03-0.66,0.1-0.98c0.08-0.38-0.1-0.78-0.44-0.97l-0.78-0.45
	l0.91-1.58l0.79,0.45c0.34,0.2,0.77,0.15,1.06-0.11c0.5-0.44,1.06-0.77,1.69-0.98c0.37-0.12,0.62-0.47,0.62-0.86V9.18h1.82v0.91
	c0,0.39,0.25,0.74,0.62,0.86c0.62,0.21,1.19,0.54,1.69,0.98c0.29,0.26,0.72,0.3,1.06,0.11l0.79-0.45l0.91,1.58l-0.78,0.45
	C20.42,13.81,20.25,14.2,20.32,14.58 M23.67,13.73c0.06-0.23,0.03-0.48-0.09-0.69l-1.82-3.16c-0.12-0.21-0.32-0.36-0.55-0.42
	c-0.23-0.06-0.48-0.03-0.69,0.09l-1.04,0.6c-0.37-0.27-0.76-0.5-1.18-0.68v-1.2c0-0.5-0.41-0.91-0.91-0.91h-3.65
	c-0.5,0-0.91,0.41-0.91,0.91v1.2c-0.41,0.19-0.81,0.41-1.18,0.68l-1.04-0.6c-0.21-0.12-0.46-0.15-0.69-0.09
	C9.69,9.52,9.49,9.67,9.37,9.88l-1.82,3.16c-0.12,0.21-0.15,0.46-0.09,0.69c0.06,0.23,0.22,0.43,0.42,0.55l1.03,0.6
	c-0.02,0.23-0.03,0.45-0.03,0.68c0,0.23,0.01,0.46,0.03,0.68l-1.03,0.6c-0.21,0.12-0.36,0.32-0.42,0.55
	c-0.06,0.23-0.03,0.48,0.09,0.69l1.82,3.16c0.12,0.21,0.32,0.36,0.55,0.43c0.23,0.06,0.48,0.03,0.69-0.09l1.04-0.6
	c0.37,0.27,0.76,0.5,1.18,0.68v1.2c0,0.5,0.41,0.91,0.91,0.91h3.65c0.5,0,0.91-0.41,0.91-0.91v-1.2c0.41-0.19,0.81-0.41,1.18-0.68
	l1.04,0.6c0.21,0.12,0.46,0.15,0.69,0.09c0.23-0.06,0.43-0.22,0.55-0.42l1.82-3.16c0.12-0.21,0.15-0.46,0.09-0.69
	c-0.06-0.23-0.22-0.43-0.42-0.55l-1.03-0.6c0.02-0.23,0.03-0.45,0.03-0.68c0-0.23-0.01-0.46-0.03-0.68l1.03-0.6
	C23.45,14.16,23.61,13.96,23.67,13.73z"/>
<path class="st0" d="M15.56,17.08c-0.84,0-1.52-0.68-1.52-1.52s0.68-1.52,1.52-1.52c0.84,0,1.52,0.68,1.52,1.52
	S16.4,17.08,15.56,17.08 M15.56,12.22c-1.84,0-3.34,1.5-3.34,3.34c0,1.84,1.5,3.34,3.34,3.34c1.84,0,3.34-1.5,3.34-3.34
	C18.9,13.72,17.4,12.22,15.56,12.22z"/>
</svg>
