<!-- Generator: Adobe Illustrator 24.1.2, SVG Export Plug-In  -->
<svg version="1.1" xmlns="http://www.w3.org/2000/svg" xmlns:xlink="http://www.w3.org/1999/xlink" x="0px" y="0px" width="31px"
	 height="30px" viewBox="0 0 31 30" style="overflow:visible;enable-background:new 0 0 31 30;" xml:space="preserve">
<style type="text/css">
	.st0{fill:#4F007D;}
</style>
<defs>
</defs>
<path class="st0" d="M29,21h-4.5c-0.28,0-0.5,0.22-0.5,0.5v3c0,0.28,0.22,0.5,0.5,0.5H29v4h-6V17.26l6,2.57V21z M29,24h-4v-2h4V24z
	 M22,29h-2v-1c0-0.28-0.22-0.5-0.5-0.5H19V22c0-0.28-0.22-0.5-0.5-0.5h-6c-0.28,0-0.5,0.22-0.5,0.5v5.5h-0.5
	c-0.28,0-0.5,0.22-0.5,0.5v1H9V4.88l13-3.71V29z M16,27.5v-5h2v5H16z M13,27.5v-5h2v5H13z M19,29h-7v-0.5h7V29z M8.36,4.02
	C8.15,4.08,8,4.28,8,4.5v3H5.5c-0.59,0-1.15-0.26-1.53-0.71C3.59,6.34,3.43,5.75,3.53,5.16c0.1-0.58,0.45-1.09,0.96-1.39
	s1.12-0.36,1.68-0.16c0.24,0.08,0.5-0.02,0.61-0.25C7.18,2.56,8.01,2.03,8.92,2c0.91-0.03,1.77,0.44,2.23,1.22L8.36,4.02z M4,22
	c-0.28,0-0.5,0.22-0.5,0.5v1.4C2.65,23.56,2,22.37,2,21c0-1.63,0.92-3,2-3c1.08,0,2,1.37,2,3c0,1.37-0.65,2.56-1.5,2.9v-1.4
	C4.5,22.22,4.28,22,4,22z M23,7.55c0.16-0.03,0.33-0.05,0.5-0.05c1.24,0,2.29,0.92,2.47,2.14c0.02,0.14,0.1,0.27,0.22,0.35
	c0.12,0.08,0.27,0.1,0.41,0.06c0.42-0.12,0.86-0.05,1.23,0.19c0.36,0.24,0.6,0.62,0.66,1.05c0.06,0.43-0.07,0.86-0.36,1.19
	C27.85,12.81,27.43,13,27,13h-4V7.55z M30.5,29H30v-9.5c0-0.2-0.12-0.38-0.3-0.46L23,16.17V14h4c1.38,0,2.5-1.12,2.5-2.5
	c0-1.38-1.12-2.5-2.5-2.5c-0.05,0-0.1,0-0.14,0C26.36,7.34,24.72,6.29,23,6.54V0.5c0-0.16-0.07-0.3-0.2-0.4
	c-0.13-0.09-0.29-0.12-0.44-0.08L12.13,2.94c-0.56-1.12-1.67-1.86-2.91-1.93C7.98,0.93,6.78,1.52,6.09,2.56
	C5.26,2.39,4.4,2.59,3.71,3.09C3.03,3.59,2.6,4.36,2.52,5.2C2.43,6.05,2.71,6.89,3.28,7.51C3.85,8.14,4.65,8.5,5.5,8.5H8V29H4.5
	v-4.05c0.64-0.14,1.22-0.55,1.67-1.18C6.71,23.02,7,22.04,7,21c0-1.04-0.29-2.02-0.83-2.77C5.61,17.44,4.83,17,4,17
	c-0.83,0-1.61,0.44-2.17,1.23C1.29,18.98,1,19.96,1,21c0,1.04,0.29,2.02,0.83,2.77c0.45,0.63,1.04,1.04,1.67,1.18v1.25l-1.28-0.64
	c-0.25-0.12-0.55-0.02-0.67,0.22c-0.12,0.25-0.02,0.55,0.22,0.67l1.72,0.86V29h-3C0.22,29,0,29.22,0,29.5S0.22,30,0.5,30h30
	c0.28,0,0.5-0.22,0.5-0.5S30.78,29,30.5,29z"/>
</svg>
