<!-- Generator: Adobe Illustrator 24.1.2, SVG Export Plug-In  -->
<svg version="1.1" xmlns="http://www.w3.org/2000/svg" xmlns:xlink="http://www.w3.org/1999/xlink" x="0px" y="0px" width="20.67px"
	 height="32.72px" viewBox="0 0 20.67 32.72" style="overflow:visible;enable-background:new 0 0 20.67 32.72;"
	 xml:space="preserve">
<style type="text/css">
	.st0{fill:#4F007D;}
</style>
<defs>
</defs>
<path class="st0" d="M2.1,2.85c-0.39,0-0.71-0.32-0.71-0.71S1.71,1.42,2.1,1.42c0.39,0,0.71,0.32,0.71,0.71S2.49,2.85,2.1,2.85z
	 M20.67,17.71v-0.09c-0.01-0.16-0.07-0.32-0.18-0.44l-5.3-5.76l5.3-5.73c0.19-0.19,0.23-0.48,0.11-0.71
	c-0.11-0.25-0.37-0.39-0.64-0.36H2.85v-0.5C3.66,3.79,4.2,3.01,4.23,2.13C4.23,0.96,3.28,0,2.1,0C0.94,0,0,0.94,0,2.1v0v0v0v0v0v0v0
	v0v0v0c0,0.01,0,0.02,0,0.03c0.05,0.88,0.6,1.66,1.42,1.99v27.88c0,0.39,0.32,0.71,0.71,0.71s0.71-0.32,0.71-0.71V18.49h17.11
	c0.29-0.03,0.54-0.23,0.64-0.5C20.64,17.9,20.66,17.81,20.67,17.71z M13.73,10.99c-0.25,0.28-0.25,0.71,0,1l4.62,5.09H2.85V6.05
	h15.51L13.73,10.99z"/>
</svg>
