<!-- Generator: Adobe Illustrator 24.1.2, SVG Export Plug-In  -->
<svg version="1.1" xmlns="http://www.w3.org/2000/svg" xmlns:xlink="http://www.w3.org/1999/xlink" x="0px" y="0px" width="23.72px"
	 height="30.98px" viewBox="0 0 23.72 30.98" style="overflow:visible;enable-background:new 0 0 23.72 30.98;"
	 xml:space="preserve">
<style type="text/css">
	.st0{fill:#4F007D;}
</style>
<defs>
</defs>
<path class="st0" d="M9.29,10.76c1.18,0,2.13-0.95,2.13-2.13c0-1.18-0.95-2.13-2.13-2.13c-1.18,0-2.13,0.95-2.13,2.13
	C7.16,9.81,8.11,10.76,9.29,10.76 M9.29,7.57c0.59,0,1.07,0.48,1.07,1.07c0,0.59-0.48,1.07-1.07,1.07c-0.59,0-1.07-0.48-1.07-1.07
	C8.23,8.05,8.7,7.57,9.29,7.57L9.29,7.57z"/>
<path class="st0" d="M13.99,10.76c1.18,0,2.13-0.95,2.13-2.13c0-1.18-0.95-2.13-2.13-2.13c-1.18,0-2.13,0.95-2.13,2.13
	C11.86,9.81,12.82,10.76,13.99,10.76 M13.99,7.57c0.59,0,1.07,0.48,1.07,1.07c0,0.59-0.48,1.07-1.07,1.07
	c-0.59,0-1.07-0.48-1.07-1.07C12.93,8.05,13.41,7.57,13.99,7.57L13.99,7.57z"/>
<path class="st0" d="M4.43,12.91c0.16,2.34,1.9,3.2,3.53,3.2h7.25c2.44,0,3.41-1.6,3.53-3.2c1.61-0.29,2.68-1.84,2.39-3.45
	c-0.23-1.27-1.25-2.24-2.52-2.41c-0.35-1.3-1.36-2.41-3.4-2.41h-3.09V3.47c0.93-0.29,1.45-1.29,1.16-2.23
	c-0.29-0.93-1.29-1.45-2.23-1.16C10.12,0.38,9.6,1.37,9.9,2.31c0.17,0.55,0.61,0.99,1.16,1.16v1.15H7.97
	c-1.44,0-2.95,0.66-3.41,2.41C2.94,7.24,1.8,8.74,2.03,10.37c0.17,1.27,1.15,2.29,2.41,2.52L4.43,12.91z M20.12,9.98
	c0,0.85-0.56,1.59-1.37,1.82V8.16C19.55,8.4,20.11,9.14,20.12,9.98z M10.88,1.8c0-0.39,0.32-0.71,0.71-0.71
	c0.39,0,0.71,0.32,0.71,0.71c0,0.39-0.32,0.71-0.71,0.71C11.2,2.51,10.88,2.2,10.88,1.8z M5.48,8.2c0-2.16,1.56-2.48,2.48-2.48h7.25
	c2.16,0,2.48,1.56,2.48,2.48v4.33c0,0.93-0.33,2.48-2.48,2.48H7.97c-0.93,0-2.48-0.33-2.48-2.48L5.48,8.2z M4.42,8.2v3.64
	c-1.01-0.29-1.59-1.34-1.3-2.35C3.3,8.87,3.79,8.38,4.42,8.2z"/>
<path class="st0" d="M14.9,12.61h-6.1c-0.29,0-0.53,0.24-0.53,0.53c0,0.29,0.24,0.53,0.53,0.53h6.1c0.29,0,0.53-0.24,0.53-0.53
	C15.44,12.85,15.2,12.61,14.9,12.61"/>
<path class="st0" d="M23.72,16.68c-0.01-1.14-0.94-2.06-2.09-2.05c-0.96,0.01-1.78,0.67-2,1.6l-1.42,0.28H5.51l-1.42-0.28
	c-0.24-1.12-1.35-1.82-2.46-1.58C0.51,14.89-0.2,16,0.05,17.11c0.17,0.76,0.74,1.36,1.49,1.56v3.98c-0.9,0.24-1.53,1.05-1.53,1.99
	v0.94c0,0.29,0.24,0.53,0.53,0.53c0.29,0,0.53-0.24,0.53-0.53v-0.95c0-0.55,0.45-1,1-1c0.55,0,1,0.45,1,1v0.95
	c0,0.29,0.24,0.53,0.53,0.53c0.29,0,0.53-0.24,0.53-0.53v-0.95c0-0.93-0.63-1.75-1.53-1.99v-3.98c0.68-0.18,1.21-0.7,1.43-1.36
	l0.89,0.18v6.58c0,0.96,0.2,1.92,0.6,2.8v0.05c1.57,3.49,5.68,5.04,9.16,3.47c1.54-0.69,2.77-1.93,3.47-3.47l0.03-0.06
	c0.4-0.88,0.61-1.83,0.61-2.79v-6.58l0.89-0.18c0.21,0.67,0.75,1.18,1.43,1.36v3.98c-0.9,0.24-1.53,1.05-1.53,1.99v0.95
	c0,0.29,0.24,0.53,0.53,0.53c0.29,0,0.53-0.24,0.53-0.53v-0.95c0-0.55,0.45-1,1-1c0.55,0,1,0.45,1,1v0.95
	c0,0.29,0.24,0.53,0.53,0.53c0.29,0,0.53-0.24,0.53-0.53v-0.95c0-0.93-0.63-1.75-1.53-1.99v-3.98
	C23.08,18.43,23.71,17.61,23.72,16.68z M2.07,17.68c-0.55,0-1-0.45-1-1c0-0.55,0.45-1,1-1c0.55,0,1,0.45,1,1
	C3.08,17.23,2.63,17.68,2.07,17.68z M11.86,29.92c-2.01,0-3.88-1.03-4.95-2.72h9.9C15.74,28.89,13.87,29.92,11.86,29.92z
	 M17.72,24.06c0,0.71-0.13,1.41-0.39,2.08H6.38c-0.25-0.66-0.39-1.37-0.39-2.08v-6.49h11.73V24.06z M21.64,17.66c-0.55,0-1-0.45-1-1
	c0-0.55,0.45-1,1-1c0.55,0,1,0.45,1,1c0.01,0.55-0.43,1.01-0.99,1.02c0,0,0,0-0.01,0L21.64,17.66z"/>
<path class="st0" d="M9.82,25.27c0.22,0.2,0.55,0.18,0.75-0.04l2.84-3.14c0.2-0.22,0.18-0.56-0.04-0.75
	c-0.1-0.09-0.22-0.14-0.36-0.14h-1.6l1.96-2.01c0.19-0.23,0.16-0.56-0.07-0.75c-0.2-0.17-0.5-0.16-0.69,0.01l-2.84,2.92
	c-0.21,0.21-0.2,0.55,0.01,0.75c0.1,0.1,0.24,0.15,0.38,0.15h1.64l-2.02,2.25C9.59,24.73,9.61,25.07,9.82,25.27z"/>
</svg>
