<!-- Generator: Adobe Illustrator 24.1.2, SVG Export Plug-In  -->
<svg version="1.1" xmlns="http://www.w3.org/2000/svg" xmlns:xlink="http://www.w3.org/1999/xlink" x="0px" y="0px" width="21.44px"
	 height="31.76px" viewBox="0 0 21.44 31.76" style="overflow:visible;enable-background:new 0 0 21.44 31.76;"
	 xml:space="preserve">
<style type="text/css">
	.st0{fill:#4F007D;}
</style>
<defs>
</defs>
<path class="st0" d="M16.08,29.05h-1.59c-0.29,0-0.53,0.24-0.53,0.53c0,0.29,0.24,0.53,0.53,0.53h1.59c0.29,0,0.53-0.24,0.53-0.53
	C16.61,29.29,16.37,29.05,16.08,29.05 M10.72,19.93c3.32,0,6.02-2.7,6.02-6.02V9.61c0-1.46-1.19-2.65-2.65-2.65H7.34
	c-1.46,0-2.65,1.19-2.65,2.65v4.29C4.7,17.23,7.4,19.93,10.72,19.93z M12.2,22.8c0.06,0.29-0.12,0.57-0.4,0.63
	c-1.39,0.3-2.81,0-3.94-0.77c-1.12,1.2-2.59,1.04-2.39,1.04c-2.43,0-4.4,1.97-4.4,4.4v3.13c0,0.29-0.24,0.53-0.53,0.53
	C0.24,31.76,0,31.53,0,31.23v-3.13c0-3.02,2.44-5.46,5.46-5.46c1.22,0,2.21-0.98,2.21-2.21V20.3c-2.31-1.11-3.93-3.43-4.03-6.13
	c-0.95-0.23-1.66-1.08-1.66-2.09V9.33C1.96,7.99,2.16,4.63,4.61,2.26c3.03-2.92,7.89-2.73,11.46-1.01c0.35,0.17,0.4,0.64,0.11,0.88
	c1.81,0.44,3.37,1.55,4.37,3.15c0.05,0.08,0.15,0.21,0.12,0.42c-0.02,0.13-0.05,0.24-0.15,0.34c-0.64,0.65-1,1.52-1,2.44v3.61
	c0,0.29-0.24,0.53-0.53,0.53c-0.29,0-0.53-0.24-0.53-0.53V8.47c0-1.06,0.36-2.07,1.03-2.88c-1.01-1.45-2.6-2.38-4.39-2.58l-0.93-0.1
	c-0.54-0.06-0.65-0.81-0.14-1.02l0.42-0.17C8.94-0.2,3.04,1.94,3.04,9.33v2.75c0,0.42,0.24,0.78,0.6,0.97V9.61
	c0-2.04,1.66-3.71,3.71-3.71h6.75c2.04,0,3.7,1.66,3.7,3.71v4.33c0,4.6-4.5,8.1-9.08,6.75c-0.03,0.38-0.12,0.74-0.28,1.08
	c0.89,0.61,2.01,0.86,3.12,0.62C11.86,22.33,12.14,22.52,12.2,22.8z M21.44,28.11v3.13c0,0.29-0.24,0.53-0.53,0.53
	c-0.29,0-0.53-0.24-0.53-0.53v-3.13c0-2.43-1.97-4.4-4.4-4.4c-1.15,0-2.2-0.59-2.8-1.57c-0.15-0.25-0.07-0.58,0.18-0.73
	c0.25-0.15,0.58-0.07,0.73,0.18c0.41,0.66,1.11,1.06,1.89,1.06C18.99,22.64,21.44,25.09,21.44,28.11z"/>
</svg>
