<!-- Generator: Adobe Illustrator 24.1.2, SVG Export Plug-In  -->
<svg version="1.1" xmlns="http://www.w3.org/2000/svg" xmlns:xlink="http://www.w3.org/1999/xlink" x="0px" y="0px" width="29.8px"
	 height="29.8px" viewBox="0 0 29.8 29.8" style="overflow:visible;enable-background:new 0 0 29.8 29.8;" xml:space="preserve">
<style type="text/css">
	.st0{fill:#4F007D;}
</style>
<defs>
</defs>
<path class="st0" d="M14.9,8.5c0.96,0,1.75,0.78,1.75,1.75c0,0.96-0.78,1.75-1.75,1.75c-0.96,0-1.75-0.78-1.75-1.75
	C13.15,9.28,13.93,8.5,14.9,8.5 M14.9,13.15c1.6,0,2.91-1.31,2.91-2.91S16.5,7.33,14.9,7.33c-1.6,0-2.91,1.31-2.91,2.91
	S13.29,13.15,14.9,13.15z"/>
<path class="st0" d="M11.76,20.13h6.27l-0.16,1.16h-5.96L11.76,20.13z M8.02,18.97c-0.38,0-0.69-0.31-0.69-0.69
	c0-0.17,0.06-0.33,0.17-0.45l2.41-2.81l0.53,3.95H8.02z M11.8,4.66H18c1.1,1.97,1.54,4.24,1.25,6.42l-1.05,7.9H11.6l-1.05-7.9
	C10.26,8.89,10.7,6.62,11.8,4.66z M14.9,1.27c0.89,0.58,1.68,1.34,2.34,2.22h-4.69C13.22,2.61,14.01,1.85,14.9,1.27z M22.3,17.83
	c0.11,0.13,0.17,0.29,0.17,0.45c0,0.38-0.31,0.69-0.69,0.69h-2.41l0.53-3.95L22.3,17.83z M10.63,26.23
	c-0.28-1.24-1.36-2.17-2.66-2.25c-0.76-1.57-2.53-2.55-4.37-2.29C1.68,21.96,0,23.84,0,25.72c0,2.11,1.84,4.07,4.19,4.07h8.09
	c0.32,0,0.58-0.26,0.58-0.58c0-0.32-0.26-0.58-0.58-0.58H4.19c-1.61,0-3.03-1.36-3.03-2.91c0-1.29,1.26-2.69,2.6-2.88
	c1.18-0.17,2.36,0.39,2.98,1.33c-0.37,0.15-0.72,0.37-1.01,0.66c-0.23,0.23-0.23,0.6,0,0.82c0.11,0.11,0.26,0.17,0.41,0.17
	c0.15,0,0.3-0.06,0.41-0.17c0.29-0.29,0.68-0.49,1.23-0.51c0.96,0,1.75,0.78,1.75,1.75c0,0.32,0.26,0.58,0.58,0.58
	c1.64,0,3.03-1.33,3.03-2.91v-2.1h3.49v2.1c0,1.58,1.39,2.91,3.03,2.91c0.32,0,0.58-0.26,0.58-0.58c0-0.96,0.78-1.75,1.74-1.75
	c0.52,0.02,0.93,0.2,1.24,0.51c0.23,0.23,0.59,0.23,0.82,0c0.23-0.23,0.23-0.6,0-0.82c-0.29-0.29-0.63-0.51-1.01-0.66
	c0.62-0.95,1.8-1.5,2.98-1.33c1.36,0.19,2.63,1.61,2.6,2.93c-0.03,1.55-1.42,2.86-3.03,2.86h-8.09c-0.32,0-0.58,0.26-0.58,0.58
	c0,0.32,0.26,0.58,0.58,0.58h8.09c2.23,0,4.15-1.83,4.19-4c0.04-1.91-1.65-3.83-3.6-4.1c-1.84-0.26-3.61,0.72-4.37,2.29
	c-1.3,0.08-2.38,1.01-2.66,2.25c-0.76-0.22-1.35-0.91-1.35-1.67v-2.1h0.58c0.29,0,0.54-0.22,0.58-0.51l0.24-1.82h2.56
	c1.02,0,1.86-0.83,1.86-1.86c0-0.44-0.16-0.87-0.45-1.21l-3.08-3.6l0.3-2.25c0.59-4.45-1.57-8.97-5.2-11.14
	c-0.18-0.11-0.41-0.11-0.6,0c-3.63,2.18-5.79,6.7-5.2,11.14l0.3,2.25l-3.08,3.6c-0.29,0.34-0.45,0.77-0.45,1.21
	c0,1.02,0.83,1.86,1.86,1.86h2.56l0.24,1.82c0.04,0.29,0.29,0.51,0.58,0.51h0.58v2.1C11.99,25.32,11.4,26.01,10.63,26.23z"/>
<path class="st0" d="M14.32,29.21c0-0.32,0.26-0.58,0.58-0.58c0.32,0,0.58,0.26,0.58,0.58"/>
</svg>
