<!-- Generator: Adobe Illustrator 24.1.2, SVG Export Plug-In  -->
<svg version="1.1" xmlns="http://www.w3.org/2000/svg" xmlns:xlink="http://www.w3.org/1999/xlink" x="0px" y="0px" width="31.12px"
	 height="23.65px" viewBox="0 0 31.12 23.65" style="overflow:visible;enable-background:new 0 0 31.12 23.65;"
	 xml:space="preserve">
<style type="text/css">
	.st0{fill:#690675;}
</style>
<defs>
</defs>
<path class="st0" d="M27.87,23.65H3.24C1.45,23.65,0,22.19,0,20.41v-2.59c0-1.79,1.45-3.24,3.24-3.24h24.63
	c1.79,0,3.24,1.45,3.24,3.24v2.59C31.12,22.2,29.66,23.65,27.87,23.65 M3.24,15.87c-1.07,0-1.94,0.87-1.94,1.94v2.59
	c0,1.07,0.87,1.94,1.94,1.94h24.63c1.07,0,1.94-0.87,1.94-1.94v-2.59c0-1.07-0.87-1.94-1.94-1.94H3.24z"/>
<path class="st0" d="M22.69,15.87c-0.36,0-0.65-0.29-0.65-0.65V6.15c0-0.36,0.29-0.65,0.65-0.65c0.36,0,0.65,0.29,0.65,0.65v9.08
	C23.34,15.58,23.05,15.87,22.69,15.87"/>
<path class="st0" d="M4.54,18.46c0.36,0,0.65,0.29,0.65,0.65c0,0.36-0.29,0.65-0.65,0.65s-0.65-0.29-0.65-0.65
	C3.89,18.75,4.18,18.46,4.54,18.46"/>
<path class="st0" d="M8.43,18.46c0.36,0,0.65,0.29,0.65,0.65c0,0.36-0.29,0.65-0.65,0.65s-0.65-0.29-0.65-0.65
	C7.78,18.75,8.07,18.46,8.43,18.46"/>
<path class="st0" d="M12.32,18.46c0.36,0,0.65,0.29,0.65,0.65c0,0.36-0.29,0.65-0.65,0.65c-0.36,0-0.65-0.29-0.65-0.65
	C11.67,18.75,11.96,18.46,12.32,18.46"/>
<path class="st0" d="M16.21,18.46c0.36,0,0.65,0.29,0.65,0.65c0,0.36-0.29,0.65-0.65,0.65"/>
<path class="st0" d="M26.58,19.76H20.1c-0.36,0-0.65-0.29-0.65-0.65c0-0.36,0.29-0.65,0.65-0.65h6.48c0.36,0,0.65,0.29,0.65,0.65
	C27.23,19.47,26.94,19.76,26.58,19.76"/>
<path class="st0" d="M20.86,8.63c-0.17,0-0.33-0.06-0.46-0.19c-0.61-0.61-0.95-1.43-0.95-2.29c0-0.87,0.34-1.68,0.95-2.29
	c0.25-0.25,0.66-0.25,0.92,0c0.25,0.25,0.25,0.66,0,0.92c-0.37,0.37-0.57,0.86-0.57,1.38c0,0.52,0.2,1.01,0.57,1.38
	c0.25,0.25,0.25,0.66,0,0.92C21.19,8.57,21.02,8.63,20.86,8.63"/>
<path class="st0" d="M24.52,8.63c-0.17,0-0.33-0.06-0.46-0.19c-0.25-0.25-0.25-0.66,0-0.92c0.37-0.37,0.57-0.86,0.57-1.38
	c0-0.52-0.2-1.01-0.57-1.38c-0.25-0.25-0.25-0.66,0-0.92c0.25-0.25,0.66-0.25,0.92,0c0.61,0.61,0.95,1.43,0.95,2.29
	c0,0.87-0.34,1.68-0.95,2.29C24.85,8.57,24.69,8.63,24.52,8.63"/>
<path class="st0" d="M19.02,10.46c-0.17,0-0.33-0.06-0.46-0.19c-2.27-2.28-2.27-5.98,0-8.25c0.25-0.25,0.66-0.25,0.92,0
	c0.25,0.25,0.25,0.66,0,0.92c-1.77,1.77-1.77,4.65,0,6.42c0.25,0.25,0.25,0.66,0,0.92C19.35,10.4,19.19,10.46,19.02,10.46"/>
<path class="st0" d="M26.36,10.46c-0.17,0-0.33-0.06-0.46-0.19c-0.25-0.25-0.25-0.66,0-0.92c1.77-1.77,1.77-4.65,0-6.42
	c-0.25-0.25-0.25-0.66,0-0.92c0.25-0.25,0.66-0.25,0.92,0c2.27,2.28,2.27,5.98,0,8.25C26.69,10.4,26.52,10.46,26.36,10.46"/>
<path class="st0" d="M17.65,1.11c-2.78,2.78-2.78,7.3,0,10.08"/>
<path class="st0" d="M28.19,12.3c-0.17,0-0.33-0.06-0.46-0.19c-0.25-0.25-0.25-0.66,0-0.92c2.78-2.78,2.78-7.3,0-10.08
	c-0.25-0.25-0.25-0.66,0-0.92c0.25-0.25,0.66-0.25,0.92,0c3.29,3.29,3.29,8.63,0,11.92C28.52,12.23,28.36,12.3,28.19,12.3"/>
</svg>
