<svg version="1.1" xmlns="http://www.w3.org/2000/svg" xmlns:xlink="http://www.w3.org/1999/xlink" x="0px" y="0px"
  width="28.28px" height="28.28px" viewBox="0 0 28.28 28.28"
  style="overflow:visible;enable-background:new 0 0 28.28 28.28;" xml:space="preserve">
  <style type="text/css">
    .st0 {
      fill: #4F007D;
    }
  </style>
  <defs>
  </defs>
  <path class="st0" d="M17.73,10.24c0.78,0.59,1.28,0.94,1.96,1.46l-9.32,4.8c-0.23,0.12-0.4,0.32-0.47,0.57
	c-0.21,0.72,0.47,0.91,0.47,2.25c0,2.08-2.12,3.77-4.71,3.77c-2.6,0-4.71-1.68-4.71-3.76c0-2.67,3.3-4.37,6.18-3.58
	c0.24,0.07,0.49,0.04,0.7-0.08c18.39-10.07,4.43-2.43,9.89-5.43H17.73z M7.83,12.63c-0.22-0.12-0.47-0.15-0.7-0.08
	c-2.93,0.79-6.19-0.95-6.19-3.58c0-2.08,2.12-3.77,4.71-3.77c2.6,0,4.71,1.69,4.71,3.77c0,1.33-0.7,1.53-0.47,2.25
	c0.07,0.25,0.24,0.46,0.47,0.58l1.34,0.69l-2.07,1.14L7.83,12.63z M15.49,6.45c-0.82-1.7-1.27-3.55-1.32-5.44l1.39,0.82
	C15.85,2,16.21,2,16.5,1.83l1.41-0.87c0.05,0.72,0.22,2.52,0.85,3.7c0.53,0.94,1.54,1.7,2.62,2.47c2.51,1.79,5.13,3.93,5.01,7.02
	c0.06,1.41-0.47,2.79-1.67,4.15l-3.44-1.85c1.5-1.36,1.34-1.92,1.34-2.43c0.08-1.29-2.16-2.92-3.22-3.7
	C17.84,9.19,16.42,8.17,15.49,6.45z M27.21,7.61l-2.17,1.31c-0.47-0.49-0.98-0.94-1.51-1.37c0.99-0.32,3.26-0.9,3.68,0.05V7.61z
	 M26.77,21.12c-1.29,0.47-4.13-0.61-4.18-0.62c-1.73-0.62-1.3-0.47-8.89-4.63l2.26-1.17l11.23,6.05c-0.09,0.17-0.24,0.3-0.42,0.35
	V21.12z M18.8,23.67c-0.64,1.17-0.81,2.97-0.85,3.69l-1.41-0.86c-0.3-0.18-0.67-0.18-0.97,0l-1.37,0.81
	c0.05-1.88,0.49-3.73,1.32-5.43c0.59-1.04,1.38-1.95,2.32-2.68c2.99,1.65,2.59,1.46,3.73,1.91c-0.99,0.68-2.19,1.53-2.76,2.55V23.67
	z M20.47,12.35c1.16,1.03,1.22,1.48,1.22,1.62v0.37c0,0.14-0.07,0.58-1.28,1.65l-3.43-1.85L20.47,12.35z M0,19.33
	c0,2.6,2.54,4.71,5.66,4.71c4.16,0,6.85-3.61,5.13-6.69l1.89-0.99l4.24,2.32c-2.01,1.72-3.46,3.95-3.7,8.54
	c-0.02,0.35,0.15,0.68,0.45,0.86c0.3,0.18,0.67,0.19,0.97,0.01l1.39-0.81l1.41,0.86c0.28,0.16,0.63,0.17,0.91,0.02
	c0.29-0.15,0.48-0.44,0.5-0.76c0.03-1.14,0.28-2.26,0.74-3.3c0.5-0.94,1.83-1.79,2.97-2.63c1.26,0.43,3.27,0.98,4.51,0.5
	c0.75-0.29,0.9-0.76,1.13-1.28c0.1-0.23,0.01-0.49-0.21-0.61l-2.46-1.32c1.26-1.48,1.86-3.05,1.79-4.63
	c0.02-1.67-0.58-3.29-1.68-4.54l2.39-1.44c0.2-0.12,0.28-0.38,0.18-0.6l-0.19-0.42c-0.56-1.26-2.36-1.37-5.44-0.34
	c-1.18-0.86-2.48-1.71-2.99-2.64c-0.46-1.04-0.71-2.16-0.74-3.3c-0.02-0.33-0.22-0.62-0.51-0.77c-0.29-0.15-0.64-0.13-0.92,0.04
	l-1.41,0.87L14.65,0.2c-0.3-0.17-0.67-0.17-0.96,0.01c-0.29,0.18-0.47,0.51-0.45,0.85c0.24,4.57,1.68,6.83,3.69,8.54l-4.24,2.32
	l-1.89-0.98c1.73-3.12-1.02-6.7-5.14-6.7C2.54,4.25,0,6.36,0,8.96c0,3.27,3.86,5.45,7.37,4.49l1.27,0.7l-1.27,0.7
	C3.84,13.87,0,16.08,0,19.33z" />
</svg>