<!-- Generator: Adobe Illustrator 24.1.2, SVG Export Plug-In  -->
<svg version="1.1" xmlns="http://www.w3.org/2000/svg" xmlns:xlink="http://www.w3.org/1999/xlink" x="0px" y="0px" width="26.41px"
	 height="26.41px" viewBox="0 0 26.41 26.41" style="overflow:visible;enable-background:new 0 0 26.41 26.41;"
	 xml:space="preserve">
<style type="text/css">
	.st0{fill:#4F007D;}
</style>
<defs>
</defs>
<path class="st0" d="M20.85,18.27c0.55,1.12,1.46,2.03,2.58,2.58c-1.12,0.55-2.03,1.46-2.58,2.58c-0.55-1.12-1.46-2.03-2.58-2.58
	C19.39,20.31,20.3,19.4,20.85,18.27 M15.85,21.41c2.45,0,4.45,1.99,4.45,4.45c0,0.31,0.25,0.56,0.56,0.56
	c0.31,0,0.56-0.25,0.56-0.56c0-2.45,1.99-4.45,4.45-4.45c0.31,0,0.56-0.25,0.56-0.56c0-0.31-0.25-0.56-0.56-0.56
	c-2.45,0-4.45-1.99-4.45-4.45c0-0.31-0.25-0.56-0.56-0.56c-0.31,0-0.56,0.25-0.56,0.56c0,2.45-1.99,4.45-4.45,4.45
	c-0.31,0-0.56,0.25-0.56,0.56C15.29,21.16,15.54,21.41,15.85,21.41z"/>
<path class="st0" d="M3.89,2.56c0.33,0.54,0.79,1,1.33,1.33c-0.55,0.33-1,0.79-1.33,1.33c-0.33-0.55-0.79-1-1.33-1.33
	C3.1,3.56,3.56,3.1,3.89,2.56 M0.56,4.45c1.53,0,2.78,1.25,2.78,2.78c0,0.31,0.25,0.56,0.56,0.56c0.31,0,0.56-0.25,0.56-0.56
	c0-1.53,1.25-2.78,2.78-2.78c0.31,0,0.56-0.25,0.56-0.56c0-0.31-0.25-0.56-0.56-0.56c-1.53,0-2.78-1.25-2.78-2.78
	C4.45,0.25,4.2,0,3.89,0C3.58,0,3.33,0.25,3.33,0.56c0,1.53-1.25,2.78-2.78,2.78C0.25,3.33,0,3.58,0,3.89C0,4.2,0.25,4.45,0.56,4.45
	z"/>
<path class="st0" d="M15.84,15.86c0,0.31-0.25,0.56-0.56,0.56c-0.31,0-0.56-0.25-0.56-0.56c0-0.31,0.25-0.56,0.56-0.56
	C15.59,15.3,15.84,15.55,15.84,15.86"/>
<path class="st0" d="M15.87,13.62c0.16,0.26,0.5,0.35,0.76,0.19c1.45-0.86,3.12-1.32,4.81-1.32c0.31,0,0.56-0.25,0.56-0.56
	c0-0.31-0.25-0.56-0.56-0.56c-5.21,0-9.45-4.24-9.45-9.45c0-0.31-0.25-0.56-0.56-0.56c-0.31,0-0.56,0.25-0.56,0.56
	c0,5.21-4.24,9.45-9.45,9.45c-0.31,0-0.56,0.25-0.56,0.56c0,0.31,0.25,0.56,0.56,0.56c5.21,0,9.45,4.24,9.45,9.45
	c0,0.31,0.25,0.56,0.56,0.56c0.31,0,0.56-0.25,0.56-0.56c0-1.7,0.46-3.36,1.32-4.81c0.16-0.26,0.07-0.6-0.19-0.76
	s-0.61-0.07-0.76,0.19c-0.38,0.63-0.68,1.3-0.92,2c-1.05-3.11-3.51-5.57-6.62-6.62c3.11-1.05,5.57-3.51,6.62-6.62
	c1.05,3.11,3.51,5.57,6.62,6.62c-0.69,0.23-1.36,0.54-2,0.92C15.8,13.01,15.71,13.35,15.87,13.62"/>
</svg>