<!-- Generator: Adobe Illustrator 24.1.2, SVG Export Plug-In  -->
<svg version="1.1" xmlns="http://www.w3.org/2000/svg" xmlns:xlink="http://www.w3.org/1999/xlink" x="0px" y="0px" width="26.61px"
	 height="26.61px" viewBox="0 0 26.61 26.61" style="overflow:visible;enable-background:new 0 0 26.61 26.61;"
	 xml:space="preserve">
<style type="text/css">
	.st0{fill:#4F007D;}
</style>
<defs>
</defs>
<path class="st0" d="M23.18,4.07c0.35,0.23,0.77,0.37,1.22,0.37c1.22,0,2.22-0.99,2.22-2.22C26.61,0.99,25.62,0,24.4,0
	s-2.22,0.99-2.22,2.22c0,0.45,0.14,0.87,0.37,1.22l-3.7,3.7l-3.7-3.7c0.23-0.35,0.37-0.77,0.37-1.22c0-1.22-0.99-2.22-2.22-2.22
	c-1.22,0-2.22,0.99-2.22,2.22c0,0.45,0.14,0.87,0.37,1.22l-3.7,3.7l-3.7-3.7C4.3,3.09,4.44,2.67,4.44,2.22C4.44,0.99,3.44,0,2.22,0
	C0.99,0,0,0.99,0,2.22c0,1.22,0.99,2.22,2.22,2.22c0.05,0,0.11-0.01,0.16-0.02l2.66,5.44l-1.6,1.6c-0.35-0.23-0.77-0.37-1.22-0.37
	C0.99,11.09,0,12.08,0,13.31s0.99,2.22,2.22,2.22c1.07,0,1.97-0.76,2.17-1.77h2.54l1.74,3.56l-5.24,5.23
	c-0.35-0.23-0.77-0.37-1.22-0.37C0.99,22.18,0,23.17,0,24.4s0.99,2.22,2.22,2.22c1.22,0,2.22-0.99,2.22-2.22
	c0-0.05-0.01-0.11-0.02-0.16l6.17-3.01l0.92,1.89c-0.26,0.36-0.42,0.8-0.42,1.28c0,1.22,0.99,2.22,2.22,2.22
	c1.22,0,2.22-0.99,2.22-2.22c0-1.07-0.76-1.97-1.77-2.17v-2.54l3.56-1.74l5.23,5.23c-0.23,0.35-0.37,0.77-0.37,1.22
	c0,1.22,0.99,2.22,2.22,2.22s2.22-0.99,2.22-2.22s-0.99-2.22-2.22-2.22c-0.2,0-0.39,0.03-0.57,0.08l-3.13-5.97l2.42-1.18
	c0.36,0.26,0.8,0.42,1.28,0.42c1.22,0,2.22-0.99,2.22-2.22s-0.99-2.22-2.22-2.22c-0.45,0-0.87,0.14-1.22,0.37l-3.7-3.7L23.18,4.07z
	 M24.4,0.89c0.73,0,1.33,0.6,1.33,1.33c0,0.73-0.6,1.33-1.33,1.33c-0.73,0-1.33-0.6-1.33-1.33C23.07,1.48,23.66,0.89,24.4,0.89z
	 M14.38,12.86l2.31-2.31l1.21,2.31H14.38z M18.36,13.75l1.12,2.14l-1.99,0.97l-3.11-3.12H18.36z M13.75,12.24V4.95l2.51,4.78
	L13.75,12.24z M14.34,4.17c0.06-0.03,0.13-0.06,0.19-0.1l3.7,3.7l-1.31,1.31L14.34,4.17z M13.31,0.89c0.73,0,1.33,0.6,1.33,1.33
	c0,0.73-0.6,1.33-1.33,1.33s-1.33-0.6-1.33-1.33C11.98,1.48,12.57,0.89,13.31,0.89z M12.09,4.07c0.23,0.15,0.49,0.27,0.78,0.32v7.85
	L8.39,7.76L12.09,4.07z M12.24,12.86H7.49l-1.38-2.82l1.65-1.65L12.24,12.86z M0.89,2.22c0-0.73,0.6-1.33,1.33-1.33
	c0.73,0,1.33,0.6,1.33,1.33c0,0.73-0.6,1.33-1.33,1.33C1.48,3.55,0.89,2.95,0.89,2.22z M3.24,4.17c0.07-0.03,0.13-0.07,0.2-0.11
	l3.7,3.7L5.7,9.2L3.24,4.17z M2.22,14.64c-0.73,0-1.33-0.6-1.33-1.33s0.6-1.33,1.33-1.33c0.73,0,1.33,0.6,1.33,1.33
	S2.95,14.64,2.22,14.64z M4.39,12.86c-0.06-0.28-0.17-0.55-0.32-0.78l1.38-1.38l1.05,2.16H4.39z M7.92,13.75h4.32l-2.9,2.9
	L7.92,13.75z M12.86,14.38v4.75l-1.87,0.91l-1.24-2.55L12.86,14.38z M2.22,25.73c-0.73,0-1.33-0.6-1.33-1.33s0.6-1.33,1.33-1.33
	c0.73,0,1.33,0.6,1.33,1.33S2.95,25.73,2.22,25.73z M4.17,23.37c-0.03-0.07-0.07-0.13-0.11-0.2l5.02-5.02l1.11,2.27L4.17,23.37z
	 M14.64,24.4c0,0.73-0.6,1.33-1.33,1.33s-1.33-0.6-1.33-1.33s0.6-1.33,1.33-1.33S14.64,23.66,14.64,24.4z M12.86,22.22
	c-0.24,0.05-0.47,0.15-0.67,0.27l-0.81-1.65l1.48-0.72V22.22z M13.75,18.69v-4.32l2.9,2.9L13.75,18.69z M25.73,24.4
	c0,0.73-0.6,1.33-1.33,1.33c-0.73,0-1.33-0.6-1.33-1.33s0.6-1.33,1.33-1.33C25.13,23.07,25.73,23.66,25.73,24.4z M22.74,22.12
	l-4.59-4.59l1.74-0.85L22.74,22.12z M19.36,13.75h2.86c0.05,0.24,0.15,0.47,0.27,0.67l-2.21,1.08L19.36,13.75z M24.4,11.98
	c0.73,0,1.33,0.6,1.33,1.33s-0.6,1.33-1.33,1.33c-0.73,0-1.33-0.6-1.33-1.33S23.66,11.98,24.4,11.98z M22.55,12.09
	c-0.15,0.23-0.27,0.49-0.32,0.78H18.9L17.34,9.9l1.51-1.51L22.55,12.09z"/>
</svg>
