<svg xmlns="http://www.w3.org/2000/svg" viewBox="0 0 286.054 286.054"  fill="#2394bc" xmlns:v="https://vecta.io/nano"><path d="M143.027 0C64.03 0 0 64.04 0 143.027c0 78.996 64.03 143.027 143.027 143.027s143.027-64.03 143.027-143.027C286.054 64.04 222.022 0 143.027 0zm0 259.236c-64.183 0-116.2-52.026-116.2-116.2s52.026-116.2 116.2-116.2 116.2 52.026 116.2 116.2-52.026 116.2-116.2 116.2zm7-178.836h-22.84c-6.9 0-10.933 7.044-10.933 13.158 0 5.936 3.2 13.158 10.933 13.158h7.26v85.36c0 8.734 6.257 13.605 13.176 13.605s13.185-4.88 13.185-13.605V92.77c-.008-6.982-3.86-12.38-10.78-12.38z"/></svg>