<svg xmlns="http://www.w3.org/2000/svg" viewBox="0 0 286.054 286.054"  xmlns:v="https://vecta.io/nano"><path d="M143.027 0C64.04 0 0 64.04 0 143.027c0 78.996 64.04 143.027 143.027 143.027s143.027-64.03 143.027-143.027C286.054 64.04 222.014 0 143.027 0zm0 259.236c-64.183 0-116.21-52.026-116.21-116.21s52.026-116.21 116.21-116.21 116.21 52.026 116.21 116.21-52.026 116.21-116.21 116.21zm32.038-104.114h-5.042v-52.607c0-15.6-8.394-21.937-18.933-21.937-9.45 0-14.535 3.093-18.53 9.94l-40.7 69.565c-1.09 1.707-2.548 3.772-2.548 7.545 0 4.452 3.817 10.1 12.72 10.1h43.793V192.3c0 9.09 1.85 13.364 11.12 13.364s13.078-4.282 13.078-13.364v-14.562h5.042c7.09 0 12.72-4.452 12.72-11.317.001-6.848-5.63-11.3-12.72-11.3zm-28.686 0h-24.896l24.53-47.816h.367v47.816z" fill="#2394bc"/></svg>