<svg xmlns="http://www.w3.org/2000/svg" viewBox="0 0 286.054 286.054"  xmlns:v="https://vecta.io/nano"><path d="M143.027 0C64.04 0 0 64.04 0 143.027c0 78.996 64.04 143.027 143.027 143.027s143.027-64.03 143.027-143.027C286.054 64.04 222.014 0 143.027 0zm0 259.236c-64.183 0-116.21-52.026-116.21-116.21s52.026-116.21 116.21-116.21 116.21 52.026 116.21 116.21-52.026 116.21-116.21 116.21zm6.65-138.387c-4.613 0-9.395.867-13.81 1.716l2.762-18.325h34.63c3.316 0 12.9-1.037 12.9-12.97 0-6.222-4.98-10.888-13.445-10.888h-44.4c-8.832 0-12.712 2.94-14.365 16.43l-4.604 36.48c-.188 1.895-.554 3.63-.554 5.873 0 2.94 3.683 8.126 10.86 8.126 9.395 0 11.05-5.703 21.74-5.703 11.424 0 17.69 7.08 17.69 17.458 0 10.897-6.633 22.643-19.523 22.643-12.345 0-21.195-11.058-28.56-11.058-6.812 0-12.515 5.364-12.515 11.755 0 15.214 27.443 23.17 40.52 23.17 31.86 0 48.817-19.023 48.817-47.896.001-20.22-15.84-36.81-38.133-36.81z" fill="#2394bc"/></svg>