<svg xmlns="http://www.w3.org/2000/svg" viewBox="0 0 286.054 286.054"  xmlns:v="https://vecta.io/nano"><path d="M143.027 0C64.03 0 0 64.04 0 143.027c0 78.996 64.03 143.027 143.027 143.027s143.027-64.03 143.027-143.027C286.054 64.04 222.022 0 143.027 0zm0 259.236c-64.183 0-116.21-52.026-116.21-116.21s52.026-116.21 116.21-116.21 116.21 52.026 116.21 116.21-52.026 116.21-116.21 116.21zm30.205-79.03h-32.038c15.66-18.46 40.852-39.753 40.852-63.736 0-21.9-16.564-35.882-39.216-35.882-22.66 0-43.847 17.977-43.847 39.717 0 6.73 4.604 12.586 13.445 12.586 17.69 0 8.108-28.498 29.294-28.498 7.554 0 13.266 6.204 13.266 13.284 0 6.204-3.138 11.558-6.454 16.046-14 18.97-30.58 34.496-45.867 51.58-1.84 2.065-4.246 5.176-4.246 8.796 0 7.938 6.266 11.38 14.365 11.38h61.528c7 0 13.266-4.568 13.266-12.497s-6.25-12.775-14.348-12.775z" fill="#2394bc"/></svg>