<svg xmlns="http://www.w3.org/2000/svg" viewBox="0 0 286.054 286.054"  xmlns:v="https://vecta.io/nano"><path d="M143.027 0C64.04 0 0 64.04 0 143.027c0 78.996 64.04 143.027 143.027 143.027s143.027-64.03 143.027-143.027C286.054 64.04 222.014 0 143.027 0zm0 259.236c-64.183 0-116.21-52.026-116.21-116.21s52.026-116.21 116.21-116.21 116.21 52.026 116.21 116.21-52.026 116.21-116.21 116.21zm24.7-121.6c8.966-5.936 13.364-15.277 13.364-25.977 0-13.24-11.254-31.082-34.73-31.082-18.093 0-35.542 14.276-35.542 27.515 0 6.284 3.915 12.56 10.602 12.56 11.085 0 8.966-16.636 24.45-16.636 7.34 0 11.737 4.925 11.737 11.37 0 18.853-23.152 6.794-23.152 24.627 0 20.033 27.72 2.548 27.72 26.317 0 9.002-6.856 15.796-15.33 15.796-18.424 0-15.813-19.872-26.898-19.872-5.873 0-12.55 4.756-12.55 11.38 0 13.418 15 31.922 39.127 31.922 23.152 0 41.084-17.154 41.084-37.527.001-13.4-8.152-24.78-19.88-30.394z" fill="#2394bc"/></svg>