<?xml version="1.0" encoding="utf-8"?>
<svg viewBox="374.88 -103.383 120.194 153.017" xmlns="http://www.w3.org/2000/svg" xmlns:bx="https://boxy-svg.com">
  <g transform="matrix(0.018553, -0.000001, 0, -0.019889, 366.084229, 49.566689)" fill="#000000" stroke="none" bx:origin="-2.176964 2.363605">
    <path d="M3588 7630 c-691 -50 -1336 -384 -1775 -917 -341 -415 -545 -940 -570 -1466 l-6 -137 -26 -6 c-414 -82 -632 -316 -671 -720 -13 -133 -13 -1390 0 -1526 21 -225 86 -374 220 -508 98 -98 190 -152 335 -197 l90 -27 332 -1 333 0 32 33 33 32 3 1420 2 1419 -31 35 c-41 47 -78 56 -238 56 l-134 0 6 128 c26 524 246 1030 617 1416 201 209 388 346 645 472 315 155 619 224 980 224 360 0 669 -71 982 -224 297 -147 534 -333 751 -591 213 -253 392 -617 461 -935 28 -132 51 -316 51 -411 l0 -79 -132 0 c-154 0 -193 -9 -234 -51 l-29 -30 -3 -1412 c-2 -1368 -1 -1413 17 -1443 33 -54 71 -64 235 -64 l146 0 0 -49 c0 -28 -7 -103 -15 -168 -89 -684 -443 -958 -1297 -1009 l-118 -7 -1 79 c-1 133 -46 212 -151 263 l-64 32 -514 -3 c-506 -3 -516 -3 -555 -25 -59 -31 -119 -101 -139 -161 -15 -44 -17 -89 -14 -339 l3 -288 29 -53 c34 -60 83 -104 148 -130 39 -15 91 -17 543 -17 l500 0 53 24 c106 48 172 158 172 288 l0 50 123 7 c355 21 695 94 891 193 185 93 357 248 458 413 126 204 206 491 225 801 l6 106 64 12 c279 51 497 230 584 477 52 149 52 149 56 924 5 900 -1 978 -93 1165 -105 215 -288 339 -586 400 -28 5 -28 5 -28 93 0 380 -155 891 -378 1245 -189 302 -466 586 -752 773 -470 307 -1026 453 -1572 414z m-1948 -4011 l0 -1221 -207 5 c-159 3 -221 8 -263 22 -188 59 -306 185 -345 370 -23 109 -22 1555 1 1658 34 150 119 264 246 328 96 48 153 57 371 58 l197 1 0 -1221z m4698 1196 c84 -20 174 -67 233 -122 63 -59 123 -176 139 -271 16 -99 8 -1566 -9 -1637 -36 -143 -128 -263 -249 -324 -99 -50 -164 -61 -374 -61 l-188 0 0 1215 0 1215 193 0 c134 0 211 -5 255 -15z m-2030 -4062 l-3 -228 -442 -3 -443 -2 0 230 0 230 445 0 445 0 -2 -227z" style="fill: #ffd12e"/>
  </g>
</svg>