
<svg version="1.0" xmlns="http://www.w3.org/2000/svg" width="100px" height="100px" viewBox="0 0 50 50">
  <g transform="translate(0.000000,50.000000) scale(0.01,-0.01)" fill="rgb(0, 132, 247)" stroke="none">
    <path d="M2640 4400 c-45 -45 -49 -111 -10 -158 14 -17 47 -30 117 -48 237 -60 449 -174 632 -340 88 -79 118 -109 173 -174 215 -254 368 -590 428 -942 7 -38 21 -79 31 -92 43 -54 127 -37 149 29 14 43 3 119 -42 300 -110 443 -361 841 -698 1111 -189 150 -377 247 -600 308 -115 32 -153 33 -180 6z" />
    <path d="M1409 4187 c-88 -33 -121 -64 -338 -322 -165 -197 -201 -289 -201 -520 0 -168 25 -317 86 -507 113 -353 254 -630 498 -983 137 -197 243 -323 436 -515 502 -502 1140 -813 1483 -724 33 8 79 25 101 36 55 27 142 102 178 152 16 23 70 87 120 143 50 56 108 127 128 157 96 141 89 345 -17 474 -157 192 -413 485 -459 524 -92 80 -185 95 -292 48 -57 -25 -85 -50 -168 -146 -38 -43 -85 -97 -105 -119 -21 -22 -46 -51 -57 -64 l-19 -24 -64 38 c-204 124 -470 399 -663 686 -62 91 -156 269 -156 293 0 9 56 80 124 159 68 79 135 164 148 188 36 62 51 138 46 229 -6 105 -42 175 -159 310 -50 58 -135 157 -189 220 -131 155 -202 225 -253 251 -52 27 -157 35 -208 16z m142 -220 c20 -12 81 -74 135 -137 162 -189 278 -324 297 -345 31 -33 57 -92 57 -127 0 -52 -26 -92 -160 -246 -154 -176 -168 -195 -176 -240 -20 -104 114 -372 319 -642 194 -254 397 -448 614 -587 115 -73 159 -85 210 -56 17 10 93 89 167 175 75 86 149 166 165 177 35 26 87 27 122 3 14 -9 97 -100 184 -202 87 -102 184 -214 215 -250 73 -83 80 -97 80 -162 0 -62 -12 -83 -99 -183 -34 -38 -93 -109 -132 -157 -83 -100 -133 -140 -208 -162 -71 -21 -125 -20 -236 3 -121 26 -199 54 -327 117 -450 222 -863 587 -1184 1049 -251 361 -413 703 -510 1080 -25 97 -29 128 -29 260 0 148 0 151 31 215 18 36 52 88 75 116 250 292 284 324 334 324 11 0 36 -10 56 -23z" />
    <path d="M2626 3712 c-38 -23 -56 -74 -43 -125 12 -46 37 -64 114 -82 131 -31 273 -114 384 -224 142 -143 232 -304 284 -515 40 -161 40 -161 71 -175 56 -25 105 -4 124 54 32 97 -78 431 -202 613 -91 134 -240 277 -368 352 -92 53 -268 119 -325 120 -5 0 -23 -8 -39 -18z" />
  </g>
</svg>