<?xml version="1.0" encoding="utf-8"?>
<svg viewBox="8.25 6.056 204.772 182.724" xmlns="http://www.w3.org/2000/svg">
  <g transform="matrix(0.1, 0, 0, -0.1, -2.218027, 195.071655)" fill="#000000" stroke="none">
    <path d="M236 1870 c-34 -11 -73 -45 -92 -82 -16 -31 -28 -488 -13 -526 6 -15 15 -22 26 -20 16 3 18 25 23 260 l5 258 28 27 27 28 590 3 c639 3 631 3 662 -51 10 -17 13 -118 11 -450 -1 -467 -1 -465 -59 -487 -14 -6 -176 -10 -371 -10 l-346 0 -107 -105 c-58 -58 -108 -105 -111 -105 -2 0 -5 42 -7 93 -3 70 -7 95 -20 105 -10 8 -53 12 -124 12 -105 0 -109 1 -140 29 l-33 29 -3 147 c-3 118 -6 147 -18 152 -38 14 -48 -46 -36 -213 10 -126 21 -151 88 -184 32 -16 60 -20 137 -20 53 0 98 -3 98 -7 1 -5 3 -46 5 -92 4 -92 13 -111 55 -111 23 0 48 18 114 81 l84 80 3 -155 c3 -168 8 -182 72 -230 26 -20 41 -21 249 -21 l222 0 3 23 3 22 -183 0 c-207 1 -253 8 -285 45 -22 25 -23 34 -23 195 l0 169 344 3 c330 3 346 4 372 24 69 51 69 50 72 325 l3 249 222 0 c204 0 225 -2 255 -20 18 -11 37 -32 42 -46 15 -38 13 -846 -2 -878 -21 -48 -53 -59 -178 -64 -90 -3 -118 -7 -127 -20 -8 -10 -13 -48 -13 -100 l0 -85 -19 25 c-11 13 -58 59 -105 101 l-85 78 -106 1 c-109 1 -131 -6 -118 -39 4 -9 29 -13 94 -13 107 0 109 -1 222 -116 84 -86 104 -100 135 -89 29 9 42 49 42 130 l0 73 114 4 c132 4 156 14 194 89 l23 44 -3 437 c-3 423 -4 437 -24 464 -50 68 -52 69 -317 74 l-242 5 -5 182 c-6 207 -10 220 -90 261 l-44 22 -581 -1 c-319 0 -593 -5 -609 -9z" style="fill: rgb(0, 132, 247);"/>
    <path d="M729 1717 c-86 -45 -141 -169 -106 -242 22 -45 71 -62 121 -41 35 15 49 35 60 87 7 34 30 43 55 21 15 -13 17 -22 11 -39 -5 -13 -16 -23 -24 -23 -22 0 -84 -75 -95 -117 -38 -135 36 -242 132 -191 35 18 46 40 47 90 0 41 3 48 33 67 65 40 97 103 98 191 2 86 -44 160 -123 201 -54 28 -152 26 -209 -4z m177 -46 c71 -32 114 -112 100 -185 -8 -41 -55 -100 -97 -122 -25 -13 -29 -20 -29 -60 0 -54 -14 -84 -39 -84 -33 0 -44 26 -39 91 4 57 7 64 44 95 84 72 84 72 84 112 0 54 -38 92 -90 92 -47 0 -76 -23 -93 -74 -17 -48 -39 -65 -61 -47 -47 39 20 167 100 191 45 13 76 11 120 -9z" style="fill: rgb(0, 132, 247);"/>
    <path d="M783 1065 c-26 -18 -46 -74 -37 -101 24 -67 111 -88 159 -39 35 34 35 96 0 130 -28 29 -88 34 -122 10z m78 -51 c34 -30 -11 -83 -46 -54 -19 16 -19 35 1 54 19 20 23 20 45 0z" style="fill: rgb(0, 132, 247);"/>
    <path d="M1094 676 c-59 -26 -69 -115 -17 -156 45 -35 120 -21 142 27 25 56 8 107 -44 129 -41 17 -42 17 -81 0z m64 -58 c18 -18 15 -46 -6 -57 -37 -20 -70 27 -40 57 15 15 31 15 46 0z" style="fill: rgb(0, 132, 247);"/>
    <path d="M1393 675 c-58 -25 -71 -92 -27 -144 32 -38 87 -43 127 -11 55 43 40 136 -24 159 -39 13 -37 13 -76 -4z m67 -60 c20 -25 8 -50 -25 -50 -21 0 -31 5 -33 18 -4 21 14 47 33 47 7 0 18 -7 25 -15z" style="fill: rgb(0, 132, 247);"/>
    <path d="M1693 675 c-59 -25 -73 -102 -27 -149 57 -56 149 -17 149 64 0 35 -6 47 -33 71 -36 33 -44 34 -89 14z m65 -76 c4 -38 -20 -54 -48 -31 -20 16 -21 21 -11 41 17 31 55 25 59 -10z" style="fill: rgb(0, 132, 247);"/>
  </g>
</svg>