<?xml version="1.0" encoding="utf-8"?>
<svg viewBox="182.802 94.787 86.59 91.471" xmlns="http://www.w3.org/2000/svg">
  <g transform="matrix(0.011515, 0, 0, -0.012324, 179.809727, 193.927632)" fill="#000000" stroke="none" style="">
    <path d="M3845 7720 c-566 -51 -1109 -238 -1570 -541 -209 -137 -348 -252 -535 -439 -372 -372 -631 -783 -795 -1262 -128 -372 -179 -683 -179 -1083 0 -400 51 -711 179 -1083 69 -203 194 -472 287 -621 10 -16 -39 -168 -289 -907 -165 -489 -297 -890 -293 -892 4 -1 417 128 919 288 502 159 917 290 924 290 6 0 49 -20 96 -44 326 -168 717 -287 1116 -342 182 -25 645 -26 830 -1 720 97 1347 386 1870 864 607 554 988 1323 1065 2148 15 161 12 474 -5 643 -152 1447 -1235 2634 -2665 2922 -80 16 -201 37 -270 45 -147 19 -541 28 -685 15z m636 -545 c538 -70 1032 -284 1444 -624 844 -698 1203 -1794 935 -2854 -87 -340 -254 -684 -479 -985 -113 -150 -362 -405 -501 -512 -429 -330 -876 -516 -1420 -591 -125 -18 -533 -18 -670 -1 -229 29 -487 93 -685 170 -182 72 -258 110 -515 260 -24 14 -57 4 -545 -151 -286 -91 -530 -168 -542 -171 -20 -6 -7 35 124 421 80 235 159 469 176 519 l31 92 -81 124 c-242 368 -387 768 -438 1204 -17 146 -20 452 -5 594 88 844 539 1585 1255 2061 135 90 430 240 579 294 219 80 505 143 746 164 139 13 446 5 591 -14z" style="fill: rgb(0, 132, 247);"/>
    <path d="M2929 5906 c-72 -19 -129 -58 -198 -136 -157 -177 -228 -343 -246 -580 -8 -106 12 -249 55 -380 65 -200 178 -394 410 -705 312 -418 679 -749 1050 -949 183 -98 672 -274 880 -316 150 -31 312 -14 477 49 149 58 329 194 387 294 41 69 77 211 83 323 6 100 6 101 -23 131 -19 21 -124 77 -314 168 -347 167 -422 199 -478 199 -50 1 -53 -2 -191 -177 -46 -59 -114 -139 -151 -179 l-68 -71 -48 5 c-61 6 -343 140 -471 223 -192 125 -375 289 -513 459 -93 116 -228 322 -236 360 -6 36 12 82 42 107 9 8 53 57 97 109 82 97 137 194 137 242 0 23 -248 635 -295 729 -26 52 -65 88 -99 93 -79 12 -244 13 -287 2z" style="fill: rgb(0, 132, 247);"/>
  </g>
</svg>