<?xml version="1.0" encoding="utf-8"?>
<svg viewBox="0 0 320 320" width="320" height="320" xmlns="http://www.w3.org/2000/svg">
  <g transform="matrix(0.109271, 0, 0, -0.104114, -40.728054, 383.545349)" fill="#690675" stroke="none">
    <path d="M1792 3450 c-187 -125 -355 -373 -418 -617 -36 -137 -42 -312 -17 -495 l19 -138 -153 -177 c-84 -98 -159 -192 -168 -210 -30 -62 -16 -144 33 -197 45 -48 78 -56 231 -56 159 0 144 11 157 -110 9 -87 23 -108 76 -112 l43 -3 0 -120 c0 -108 -2 -124 -23 -157 -22 -35 -77 -78 -100 -78 -5 0 -13 12 -17 28 -18 75 -105 153 -194 175 -41 9 -53 18 -76 54 -103 164 -342 224 -516 132 -70 -38 -147 -116 -185 -190 -26 -49 -29 -64 -29 -154 0 -88 3 -107 27 -157 54 -116 169 -204 297 -228 30 -6 229 -10 455 -10 435 0 446 1 446 54 0 57 13 55 -455 59 -382 2 -435 5 -476 20 -145 56 -227 223 -171 350 28 64 94 132 158 163 48 23 63 26 127 22 83 -5 160 -40 203 -91 l25 -29 -45 -28 c-25 -16 -50 -38 -56 -50 -17 -31 -4 -69 26 -81 22 -8 34 -4 72 21 74 49 130 51 200 8 38 -23 72 -84 72 -127 0 -41 24 -61 72 -61 96 0 190 58 242 150 30 53 31 60 34 193 l4 137 164 0 164 0 0 -113 c0 -188 40 -273 159 -334 102 -53 191 -42 191 23 0 40 25 87 63 121 61 53 131 55 204 6 61 -41 113 -29 113 26 0 29 -24 56 -78 89 l-34 20 36 36 c53 53 110 78 189 84 86 6 144 -15 211 -77 155 -145 115 -363 -83 -455 -44 -20 -61 -21 -481 -24 -390 -3 -436 -5 -447 -19 -19 -24 -16 -50 7 -73 19 -19 33 -20 424 -20 228 0 427 4 457 10 211 39 361 239 329 436 -27 166 -175 310 -340 332 -156 22 -312 -45 -391 -169 -23 -34 -39 -49 -54 -49 -12 0 -50 -14 -84 -31 -66 -33 -124 -98 -136 -151 -4 -16 -11 -28 -17 -28 -23 0 -78 43 -100 78 -20 33 -23 50 -23 157 l0 120 43 3 c52 4 67 24 76 102 4 30 9 70 12 88 l6 32 141 0 c122 0 146 3 184 21 59 29 93 87 93 160 0 69 -4 75 -184 284 -105 122 -146 177 -146 195 1 14 7 72 15 130 17 123 19 290 5 377 -37 226 -147 448 -299 602 -82 83 -190 161 -224 161 -13 0 -52 -18 -85 -40z m212 -191 c50 -48 88 -90 85 -93 -3 -4 -102 -5 -220 -4 l-214 3 60 64 c33 35 82 81 108 102 60 48 58 48 181 -72z m192 -261 c63 -124 104 -297 104 -437 0 -61 -81 -720 -105 -858 l-6 -33 -313 0 -314 0 -6 33 c-3 17 -28 205 -57 417 -43 326 -50 400 -46 485 7 120 42 265 90 369 l36 76 295 0 296 0 26 -52z m-777 -1116 c11 -87 21 -171 21 -185 l0 -27 -119 0 c-105 0 -121 2 -145 21 -40 31 -33 60 32 137 147 175 177 211 183 211 3 1 16 -70 28 -157z m1064 18 c128 -148 138 -172 91 -209 -24 -19 -40 -21 -145 -21 -107 0 -119 2 -119 18 -1 41 44 352 51 350 3 -2 59 -64 122 -138z m-310 -372 c-2 -18 -6 -43 -9 -55 l-4 -23 -284 0 -284 0 -6 23 c-3 12 -6 37 -6 55 l0 32 298 0 299 0 -4 -32z" style="stroke-opacity: 0.97; paint-order: fill;"/>
    <path d="M1792 2776 c-128 -42 -198 -147 -190 -284 6 -107 56 -184 151 -234 33 -18 59 -23 122 -23 70 0 87 4 133 29 96 54 142 133 142 246 0 78 -15 123 -59 179 -64 81 -198 120 -299 87z m127 -106 c101 -29 151 -149 99 -242 -67 -119 -231 -109 -297 19 -38 74 17 191 104 221 39 14 53 14 94 2z" style="stroke-opacity: 0.97; paint-order: fill;"/>
    <path d="M1830 719 c-17 -30 -8 -62 21 -78 24 -13 29 -13 53 2 28 19 36 63 14 85 -20 20 -76 15 -88 -9z" style="stroke-opacity: 0.97; paint-order: fill;"/>
  </g>
</svg>