
                <svg version="1.1" xmlns="http://www.w3.org/2000/svg" xmlns:xlink="http://www.w3.org/1999/xlink" x="0px"
                  y="0px" width="22.64px" height="28.66px" viewBox="0 0 11.32 14.33"
                  style="overflow:visible;enable-background:new 0 0 11.32 14.33;" xml:space="preserve">
                  <style type="text/css">
                    .st0 {
                      fill: #FCD541;
                    }
                    .st1 {
                      fill: #5D0290;
                    }
                  </style>
                  <defs>
                  </defs>
                  <path class="st0" d="M0.99,11.6L0.96,2.72C0.95,1.15,3.19,0.36,4.51,1.48l5.24,4.45c0.82,0.69,0.82,1.81,0.01,2.5l-5.21,4.42
	C3.24,13.97,1,13.17,0.99,11.6" />
                  <path class="st1" d="M1.91,2.72l0.03,8.87c0,0.15,0.06,0.3,0.16,0.41c0.1,0.12,0.24,0.22,0.41,0.29c0.18,0.08,0.39,0.12,0.59,0.12
	c0.29,0,0.59-0.09,0.82-0.29l5.21-4.42c0.04-0.03,0.07-0.07,0.1-0.1c0.11-0.13,0.16-0.27,0.16-0.41c0-0.14-0.06-0.28-0.17-0.42
	C9.2,6.74,9.17,6.7,9.13,6.67L3.89,2.21c-0.25-0.21-0.55-0.3-0.86-0.3c-0.19,0-0.39,0.04-0.57,0.12C2.3,2.1,2.16,2.2,2.07,2.31l0,0
	C1.97,2.42,1.91,2.57,1.91,2.72 M0.03,11.6L0,2.72c0-0.65,0.23-1.21,0.61-1.65h0c0.3-0.35,0.68-0.62,1.09-0.8
	C2.11,0.1,2.56,0,3.03,0c0.73,0,1.48,0.23,2.09,0.75l5.24,4.45c0.12,0.1,0.23,0.21,0.33,0.33l0,0c0.41,0.48,0.62,1.07,0.62,1.65
	c0,0.59-0.2,1.17-0.61,1.65c-0.1,0.12-0.21,0.23-0.33,0.33l-5.21,4.42c-0.6,0.51-1.33,0.74-2.05,0.74c-0.47,0-0.93-0.09-1.35-0.27
	c-0.43-0.19-0.82-0.46-1.12-0.81C0.27,12.81,0.04,12.24,0.03,11.6z" />
                </svg>