<svg width="287.714" height="321.04" xmlns="http://www.w3.org/2000/svg">
 <g>
  <title>Layer 1</title>
  <g transform="matrix(0.1, 0, 0, -0.1, -51.7042, 376.539)" fill="#690675" id="svg_1">
   <path d="m2014.82031,3383c-230,-247 -265,-639 -82,-926c54,-85 111,-142 143,-142c31,0 60,27 60,58c0,11 -23,47 -51,79c-58,67 -112,171 -135,263c-20,78 -22,214 -4,290c19,85 81,209 138,276c54,65 63,92 36,118c-26,27 -72,20 -105,-16z" id="svg_2"/>
   <path d="m3022.82031,3397c-26,-29 -21,-44 38,-118c104,-131 149,-256 149,-414c-1,-158 -51,-295 -153,-415c-28,-32 -51,-66 -51,-75c0,-30 30,-60 60,-60c58,0 178,166 227,315c20,63 27,106 31,206c5,143 -14,241 -69,359c-33,70 -130,204 -155,214c-29,11 -61,6 -77,-12z" id="svg_3"/>
   <path d="m2184.82031,3223c-174,-190 -183,-487 -21,-686c46,-58 73,-70 107,-48c38,25 33,64 -15,122c-63,77 -84,141 -85,259c0,88 3,107 27,158c15,32 43,77 63,101c38,47 45,85 19,110c-25,26 -62,19 -95,-16z" id="svg_4"/>
   <path d="m2862.82031,3237c-26,-28 -20,-59 18,-106c19,-23 47,-69 62,-102c25,-53 28,-70 28,-164c0,-92 -3,-112 -26,-160c-14,-30 -42,-75 -62,-98c-45,-53 -49,-94 -12,-118c33,-21 57,-12 105,43c99,112 142,287 109,445c-25,121 -127,278 -181,278c-14,0 -32,-8 -41,-18z" id="svg_5"/>
   <path d="m2354.82031,3063c-43,-45 -73,-128 -72,-198c1,-143 105,-269 166,-202c25,27 21,54 -12,96c-52,66 -52,144 0,215c16,23 29,50 29,60c0,50 -72,69 -111,29z" id="svg_6"/>
   <path d="m2692.82031,3067c-23,-26 -21,-40 13,-91c52,-76 52,-148 0,-217c-34,-45 -36,-61 -14,-92c21,-31 64,-29 96,6c96,102 99,285 5,385c-31,32 -76,36 -100,9z" id="svg_7"/>
   <path d="m2535.82031,2915c-13,-8 -16,-68 -20,-407l-5,-398l-890,-5l-890,-5l-41,-22c-59,-31 -103,-79 -133,-143c-23,-50 -26,-70 -29,-206c-7,-251 32,-341 173,-410l50,-24l1180,0l1180,0l50,24c61,29 117,86 144,146c18,40 21,65 21,235c0,163 -3,196 -19,231c-25,55 -75,109 -130,142c-46,27 -46,27 -296,32l-250,5l-5,398c-5,426 -4,417 -55,417c-11,0 -27,-5 -35,-10zm543,-931c52,-14 111,-69 125,-117c15,-50 16,-288 1,-333c-17,-50 -74,-105 -123,-118c-30,-9 -351,-11 -1177,-9l-1135,3l-41,27c-70,46 -83,89 -83,263c0,130 3,154 21,192c23,48 57,76 109,91c49,14 2252,15 2303,1z" id="svg_8"/>
   <path d="m888.82031,1729c-15,-24 -15,-29 -2,-53c29,-51 109,-33 109,24c0,56 -76,76 -107,29z" id="svg_9"/>
   <path d="m1238.82031,1729c-15,-24 -15,-29 -2,-53c29,-51 109,-33 109,24c0,56 -76,76 -107,29z" id="svg_10"/>
   <path d="m1588.82031,1729c-15,-24 -15,-29 -2,-53c29,-51 109,-33 109,24c0,56 -76,76 -107,29z" id="svg_11"/>
   <path d="m1938.82031,1729c-15,-24 -15,-29 -2,-53c29,-51 109,-33 109,24c0,56 -76,76 -107,29z" id="svg_12"/>
   <path d="m2288.82031,1729c-15,-24 -15,-29 -2,-53l15,-26l323,-3c231,-2 328,1 337,9c17,14 18,71 2,87c-9,9 -97,12 -335,12l-323,0l-17,-26z" id="svg_13"/>
  </g>
 </g>

</svg>