<?xml version="1.0" encoding="utf-8"?>
<svg viewBox="0 -33.061 300.714 342.04" width="300.714" height="342.04" xmlns="http://www.w3.org/2000/svg">
  <g transform="matrix(0.1, 0, 0, -0.1, -50.076595, 336.625244)" fill="#690675" stroke="none">
    <path d="M 1848 3272.515 C 1687 3243.515 1545 3170.515 1423 3054.515 C 1338 2974.515 1284 2900.515 1234 2795.515 C 1194 2709.515 1160 2583.515 1160 2517.515 L 1160 2470.515 L 1108 2452.515 C 1073 2441.515 1040 2419.515 1009 2388.515 C 935 2314.515 930 2286.515 930 1958.515 C 930 1642.515 935 1609.515 1000 1536.515 C 1061 1466.515 1120 1445.515 1265 1440.515 C 1376 1436.515 1387 1438.515 1413 1458.515 L 1440 1479.515 L 1440 1948.515 C 1440 2206.515 1437 2424.515 1434 2433.515 C 1425 2455.515 1377 2478.515 1340 2478.515 C 1310 2478.515 1310 2478.515 1316 2521.515 C 1326 2595.515 1361 2701.515 1398 2773.515 C 1442 2857.515 1567 2986.515 1652 3036.515 C 1872 3165.515 2162 3160.515 2376 3023.515 C 2540 2918.515 2668 2720.515 2686 2539.515 L 2693 2481.515 L 2650 2475.515 C 2626 2472.515 2598 2460.515 2586 2448.515 C 2565 2428.515 2565 2422.515 2565 1957.515 L 2565 1486.515 L 2593 1462.515 C 2611 1446.515 2633 1438.515 2657 1438.515 L 2693 1438.515 L 2687 1389.515 C 2679 1318.515 2644 1243.515 2600 1204.515 C 2558 1166.515 2478 1133.515 2405 1123.515 C 2377 1120.515 2345 1115.515 2333 1112.515 C 2315 1109.515 2308 1116.515 2291 1152.515 C 2260 1222.515 2241 1228.515 2035 1228.515 C 1784 1228.515 1770 1218.515 1770 1033.515 C 1770 848.515 1784 838.515 2035 838.515 C 2241 838.515 2260 844.515 2291 914.515 C 2310 955.515 2313 958.515 2351 958.515 C 2410 958.515 2535 986.515 2594 1012.515 C 2740 1078.515 2825 1203.515 2845 1384.515 L 2852 1444.515 L 2899 1461.515 C 2965 1484.515 3014 1530.515 3047 1596.515 L 3075 1653.515 L 3078 1936.515 C 3081 2250.515 3076 2289.515 3020 2366.515 C 2999 2395.515 2971 2417.515 2921 2440.515 L 2852 2473.515 L 2846 2540.515 C 2843 2577.515 2828 2644.515 2814 2690.515 C 2686 3100.515 2274 3349.515 1848 3272.515 Z M 1290 1958.515 L 1290 1598.515 L 1240 1598.515 C 1162 1598.515 1123 1619.515 1099 1673.515 C 1080 1716.515 1079 1736.515 1082 1976.515 C 1085 2206.515 1087 2237.515 1103 2262.515 C 1127 2298.515 1173 2317.515 1238 2318.515 L 1290 2318.515 L 1290 1958.515 Z M 2849 2300.515 C 2868 2291.515 2893 2270.515 2904 2255.515 C 2924 2228.515 2924 2216.515 2922 1961.515 C 2920 1815.515 2915 1686.515 2910 1674.515 C 2892 1627.515 2853 1604.515 2785 1600.515 L 2720 1596.515 L 2720 1957.515 L 2720 2318.515 L 2768 2318.515 C 2794 2318.515 2830 2310.515 2849 2300.515 Z M 2152.33 1024.298 L 2153.661 977.637 L 2040.887 976.081 L 1931.443 977.411 L 1930 1024.185 L 1930 1085.836 L 2041 1087.28 L 2151 1087.28 L 2152.33 1024.298 Z"/>
  </g>
</svg>