<svg version="1.0" xmlns="http://www.w3.org/2000/svg" width="277.333" height="278.667" viewBox="0 0 208 209"><linearGradient id="a" x1="0%" y1="93%" x2="100%" y2="7%"><stop offset="0%" stop-color="#006b9d"/><stop offset="26%" stop-color="#006b9d"/><stop offset="49%" stop-color="#005a8c"/><stop offset="100%" stop-color="#005a8c"/></linearGradient><g transform="matrix(.1 0 0 -.1 0 209)" fill="url(#a)"><path d="M908 2065c-116-19-261-68-355-121-93-53-117-78-103-105 14-24 37-24 75 2 62 42 188 100 272 125 119 35 299 44 428 19 319-60 590-285 710-590 89-226 85-482-12-712-94-222-294-417-522-509-124-50-176-59-351-59-184 0-254 14-396 80l-73 33-217-59c-119-32-224-59-232-59-9 0-13 7-10 18 3 9 31 111 64 226l58 208-22 38c-71 124-112 289-112 450 0 189 41 338 137 498 48 80 50 112 7 112-19 0-33-13-61-57C76 1420 13 1158 39 958c15-119 37-205 74-293 16-38 34-82 39-96 9-21 1-61-47-235C74 219 41 110 34 91c-18-44-18-54 6-68 16-11 61-1 277 58l257 70 67-31c89-41 233-76 344-85 377-28 756 173 951 504 91 156 134 322 134 518-1 214-53 390-166 560-165 249-410 403-711 448-117 18-169 18-285 0z"/><path d="M875 1895C323 1774 35 1167 290 664l49-95-40-140c-21-76-39-146-39-154 0-34 34-33 182 8l148 40 89-42c248-115 519-113 759 5 92 46 117 69 106 98s-36 25-117-18c-136-74-208-91-372-91-165 1-226 14-360 82l-90 45-123-33c-67-17-124-30-127-27-3 2 9 51 25 109 17 57 30 114 30 126s-16 48-34 81c-134 228-142 512-20 753 170 338 573 507 932 391 130-42 221-99 322-201 72-72 94-103 138-191 58-117 79-187 88-301 12-142-29-321-101-442-38-64-41-77-23-95 25-25 47-12 81 46 87 149 122 295 114 476-8 186-62 337-171 483-118 156-309 277-504 319-83 17-277 17-357-1zM338 1779c-24-14-23-46 3-59 37-20 67 28 37 58-14 14-18 14-40 1z"/><path d="M653 1521c-85-39-140-158-131-283 4-53 14-87 42-143 134-271 425-501 695-547 87-15 163-2 231 39 81 50 128 189 84 251-19 27-224 132-258 132-29 0-73-35-107-84-15-22-32-36-45-36-52 0-263 172-303 249-12 21-10 26 17 55 36 38 52 68 52 96 0 12-23 76-52 142-45 107-55 122-84 134-45 19-91 17-141-5zm163-169l45-103-40-51c-53-66-54-99-5-165 80-106 178-188 285-238 81-37 95-34 161 37l58 63 98-50 97-50-3-40c-3-44-24-78-66-109-37-28-162-34-239-12-79 23-221 97-300 157-159 120-317 356-317 473 0 55 27 127 62 163 29 30 38 34 76 31l44-3 44-103zM1612 498c-30-30 3-77 40-57 30 16 16 69-17 69-6 0-16-5-23-12z"/></g></svg>