<svg version="1.0" xmlns="http://www.w3.org/2000/svg" width="282.667" height="277.333" viewBox="0 0 212 208"><linearGradient id="a" x1="0%" y1="50%" x2="100%" y2="50%"><stop offset="0%" stop-color="#004c7f"/><stop offset="15%" stop-color="#004c7f"/><stop offset="60%" stop-color="#003266"/><stop offset="100%" stop-color="#003266"/></linearGradient><g transform="matrix(.1 0 0 -.1 0 208)" fill="url(#a)"><path d="M1370 2042c-68-34-75-40-76-67 0-16-5-29-10-29-5 1-45 10-89 20-109 25-302 25-410 0-100-23-209-66-295-116-81-47-98-65-83-88 18-29 38-25 129 27 147 85 284 121 459 121 63 0 138-7 175-15 95-22 97-23 74-39-24-17-100-25-234-25-338 1-614-168-763-466-114-230-109-512 15-746l40-76-40-139c-40-143-41-174-4-174 9 0 75 16 145 35s134 35 143 35c8 0 46-16 85-36 235-118 549-107 774 28 57 34 68 48 59 72-11 28-36 25-107-13-172-94-362-118-562-71-28 7-92 32-144 58l-93 45-116-32c-63-17-117-29-119-27-3 3 9 56 27 118l31 114-40 70c-22 38-52 105-68 149-26 74-28 91-28 230 1 136 3 157 28 230 40 119 91 199 192 301 77 77 105 98 185 137 116 57 187 76 310 83 116 6 126 1 105-51-16-37-16-38 14-69 60-63 62-115 5-179-19-20-34-40-33-45 0-4 15-41 32-82l33-75 50-5c87-9 127-49 126-126-1-49 1-51 86-87 80-34 92-34 127 3 50 52 124 50 176-6 12-13 31-24 42-24 19 0 19-5 14-78-6-94-45-218-92-295-39-64-42-79-20-97 23-19 48-3 83 54 64 107 112 282 112 406 0 44 2 49 30 59 17 5 30 15 30 20 0 6 5 11 11 11 18 0 4-211-20-305-72-277-275-509-541-618-120-49-185-61-335-61-162-1-241 15-373 74l-84 38-86-24C190 122 99 98 96 101c-2 2 23 100 57 217l60 213-41 87c-65 137-85 223-85 382-1 191 41 344 134 486 45 70 46 95 1 102-52 8-174-251-202-428-15-100-12-245 9-345 16-77 38-143 93-275 9-21-1-64-51-242C38 179 10 65 10 45c0-30 3-35 23-35 12 0 129 29 259 64l237 64 79-34c204-88 469-101 682-32 311 100 551 348 646 665 32 106 44 318 25 428-7 37-9 70-6 73 3 4 29 9 56 12l51 5 29 68c35 84 36 97 4 127-30 28-49 82-41 115 4 14 20 40 37 60 36 41 35 65-9 155l-27 55-56 5c-31 3-64 12-74 20-25 21-45 72-45 115 0 35-2 36-76 70-42 19-81 35-87 35-5 0-25-15-43-34-53-55-124-54-179 4-16 16-34 30-39 29-6 0-45-17-86-37zm116-69c62-47 156-40 235 18 13 10 24 8 55-7 34-17 40-25 46-63 4-24 14-54 22-67 27-40 84-76 130-81 40-5 45-9 59-45 16-38 15-40-14-86-44-70-39-164 14-220l21-22-22-45c-19-40-26-45-54-45-75-1-157-83-158-158 0-30-5-35-45-53l-46-20-30 25c-64 54-155 54-226 0l-33-25-40 21c-31 16-40 26-40 46 0 40-24 87-64 122-35 31-53 38-106 44-33 4-69 72-51 97 59 81 65 172 16 237-27 36-28 38-13 78 13 36 19 41 56 48 48 8 90 28 114 55 23 25 48 86 48 116 0 16 10 28 33 40 44 22 53 21 93-10z"/><path fill="#003266" d="M1486 1805c-53-19-106-63-140-119-41-66-48-178-16-254 43-100 152-172 260-172 114 0 229 83 265 189 48 146-27 306-168 358-44 16-154 15-201-2zm165-56c177-53 206-291 49-387-50-30-61-33-121-30-52 3-75 9-108 31-113 75-131 226-37 324 61 65 135 86 217 62z"/><path fill="#003266" d="M1645 1590c-33-33-64-60-70-60s-24 14-40 30c-34 35-71 39-80 9-6-17 4-33 46-75 31-31 62-54 74-54 24 0 175 149 175 172 0 17-20 38-35 38-6 0-37-27-70-60zM605 1454c-81-42-127-130-126-245 0-83 26-153 93-256 232-356 692-550 874-368 64 65 84 186 36 228-9 8-59 36-109 61-124 61-152 61-210 0-24-26-43-51-43-55 0-19-38-8-100 29-66 38-184 149-209 195-13 25-12 29 23 67 49 55 48 88-10 223-36 84-53 111-75 123-37 18-106 18-144-2zm144-137c58-127 58-120 12-178-23-29-41-58-41-66 0-54 123-197 232-269 73-49 147-77 176-68 9 4 40 31 67 61l51 54 89-43 90-43 3-42c3-34-2-47-28-77-81-92-271-68-480 62-141 87-306 280-352 411-46 130 15 280 115 281 25 0 31-8 66-83zM1526 474c-27-27-12-64 26-64 15 0 38 27 38 44 0 8-31 36-40 36-5 0-16-7-24-16z"/></g></svg>