<svg version="1.0" xmlns="http://www.w3.org/2000/svg" width="262.667" height="260" viewBox="0 0 197 195"><linearGradient id="a" x1="0%" y1="50%" x2="100%" y2="50%"><stop offset="0%" stop-color="#007fa1"/><stop offset="37%" stop-color="#007fa1"/><stop offset="59%" stop-color="#0076a4"/><stop offset="100%" stop-color="#0076a4"/></linearGradient><g transform="matrix(.1 0 0 -.1 0 195)" fill="url(#a)"><path d="M242 1895c-147-74-222-179-222-313 0-106 76-338 172-524C435 584 849 227 1350 58c151-50 273-62 359-33 76 25 152 99 200 196 48 95 57 138 42 190-19 63-55 95-232 201-193 115-230 126-311 90-46-20-56-30-111-117-20-31-41-51-54-53-31-5-192 81-283 149-104 78-239 222-306 324-64 98-118 211-110 231 3 7 37 34 75 58 94 61 129 130 110 216-10 44-175 328-218 374-65 71-143 74-269 11zm204-40c13-8 69-92 125-186 95-160 101-174 96-213-4-31-14-49-43-73-21-18-40-33-43-33s-44 63-89 140c-98 164-106 174-133 160-10-6-19-16-19-23s40-80 89-162l90-148-20-25c-29-38-24-92 16-177 120-251 349-484 600-607 108-53 155-59 196-22 18 16 28 12 264-130 135-81 245-150 245-153 0-19-55-73-99-97-76-41-136-44-256-12-437 117-849 418-1108 811-117 178-235 453-266 619-13 68-2 131 34 191 31 54 50 70 147 121 89 47 125 51 174 19zM1693 548c172-104 197-127 197-183 0-34-27-98-40-93-37 12-479 286-479 297-1 7 14 28 33 47 28 28 41 34 77 34 38 0 67-14 212-102z"/><path d="M264 1766c-10-26 4-48 28-44 17 2 23 10 23 28s-6 26-23 28c-13 2-25-3-28-12z"/></g></svg>