<?xml version="1.0" standalone="no"?>
<!DOCTYPE svg PUBLIC "-//W3C//DTD SVG 20010904//EN"
 "http://www.w3.org/TR/2001/REC-SVG-20010904/DTD/svg10.dtd">
<svg version="1.0" xmlns="http://www.w3.org/2000/svg"
 width="422.000000pt" height="485.000000pt" viewBox="0 0 422.000000 485.000000"
 preserveAspectRatio="xMidYMid meet">

<g transform="translate(0.000000,485.000000) scale(0.100000,-0.100000)"
fill="#000000" stroke="none">
<path d="M964 4644 c-4 -15 -4 -171 -1 -348 4 -176 7 -666 7 -1087 l0 -766 81
-69 c45 -38 129 -112 188 -164 58 -53 162 -145 231 -205 69 -61 134 -118 144
-127 11 -10 25 -18 32 -18 7 0 45 22 85 50 137 94 293 140 483 140 199 0 322
-45 442 -165 79 -78 108 -136 119 -241 16 -136 -34 -261 -145 -369 -117 -113
-237 -155 -440 -155 -229 0 -429 90 -643 290 -70 66 -79 71 -95 58 -61 -53
-180 -148 -402 -323 -140 -110 -272 -216 -294 -236 l-40 -36 49 -69 c66 -94
261 -285 370 -363 149 -104 351 -199 550 -256 194 -55 301 -69 550 -69 242 0
316 7 492 50 161 39 218 60 378 139 409 204 688 531 784 920 36 149 45 228 45
405 -1 379 -84 628 -293 876 -228 270 -557 434 -971 484 -176 21 -512 6 -627
-29 -17 -5 -34 -7 -37 -3 -3 3 -6 185 -6 404 l0 398 843 2 842 3 0 450 0 450
-1357 3 -1358 2 -6 -26z"/>
</g>
</svg>
