<?xml version="1.0" standalone="no"?>
<!DOCTYPE svg PUBLIC "-//W3C//DTD SVG 20010904//EN"
 "http://www.w3.org/TR/2001/REC-SVG-20010904/DTD/svg10.dtd">
<svg version="1.0" xmlns="http://www.w3.org/2000/svg"
 width="456.000000pt" height="511.000000pt" viewBox="0 0 456.000000 511.000000"
 preserveAspectRatio="xMidYMid meet">

<g transform="translate(0.000000,511.000000) scale(0.100000,-0.100000)"
fill="#000000" stroke="none">
<path d="M2488 4858 c-9 -7 -133 -176 -275 -375 -142 -200 -433 -609 -648
-910 -214 -301 -471 -660 -569 -797 -99 -138 -239 -334 -311 -436 l-132 -185
-7 -206 c-3 -114 -3 -308 1 -433 l6 -226 949 0 948 0 0 -460 0 -460 540 0 540
0 0 460 0 460 219 0 c172 0 221 3 230 14 8 9 10 136 9 452 l-3 439 -225 5
-225 5 -3 1333 -2 1332 -513 0 c-395 0 -517 -3 -529 -12z m-43 -2168 l0 -480
-338 0 c-268 0 -337 3 -330 13 7 12 455 651 595 850 38 53 70 97 71 97 1 0 2
-216 2 -480z"/>
</g>
</svg>
