<?xml version="1.0" standalone="no"?>
<!DOCTYPE svg PUBLIC "-//W3C//DTD SVG 20010904//EN"
 "http://www.w3.org/TR/2001/REC-SVG-20010904/DTD/svg10.dtd">
<svg version="1.0" xmlns="http://www.w3.org/2000/svg"
 width="500.000000pt" height="499.000000pt" viewBox="0 0 500.000000 499.000000"
 preserveAspectRatio="xMidYMid meet">

<g transform="translate(0.000000,499.000000) scale(0.100000,-0.100000)"
fill="#000000" stroke="none">
<path d="M2406 4729 c-175 -14 -421 -86 -591 -172 -78 -39 -220 -131 -306
-198 -106 -83 -217 -179 -232 -201 -8 -13 -40 -52 -72 -88 -57 -66 -154 -200
-180 -251 l-15 -28 81 -56 c44 -31 108 -80 142 -109 134 -112 403 -319 499
-383 l47 -32 80 92 c117 136 215 227 318 294 153 101 300 144 468 138 96 -4
187 -39 254 -101 59 -53 83 -105 89 -190 6 -91 -15 -157 -76 -244 -99 -139
-210 -245 -502 -479 -348 -279 -640 -552 -771 -721 -225 -289 -332 -492 -402
-760 -45 -172 -65 -300 -78 -508 -10 -148 -6 -489 6 -500 3 -4 1512 -5 2908
-2 l57 0 0 475 0 475 -855 0 c-811 0 -855 1 -855 18 0 22 80 161 135 232 102
132 214 246 355 360 82 66 244 204 362 307 577 504 758 733 844 1071 86 336
32 706 -143 969 -54 81 -242 263 -342 330 -162 108 -354 189 -546 232 -163 36
-451 49 -679 30z"/>
</g>
</svg>
