<?xml version="1.0" standalone="no"?>
<!DOCTYPE svg PUBLIC "-//W3C//DTD SVG 20010904//EN"
 "http://www.w3.org/TR/2001/REC-SVG-20010904/DTD/svg10.dtd">
<svg version="1.0" xmlns="http://www.w3.org/2000/svg"
 width="451.000000pt" height="496.000000pt" viewBox="0 0 451.000000 496.000000"
 preserveAspectRatio="xMidYMid meet">

<g transform="translate(0.000000,496.000000) scale(0.100000,-0.100000)"
fill="#000000" stroke="none">
<path d="M2160 4784 c-437 -59 -823 -258 -1092 -561 -72 -82 -139 -174 -164
-226 -16 -33 -16 -39 -3 -51 17 -17 704 -478 738 -496 22 -11 28 -7 102 68
182 186 352 262 588 262 169 0 258 -35 361 -139 86 -87 115 -158 115 -281 0
-76 -4 -93 -33 -152 -45 -92 -146 -185 -245 -226 -132 -55 -194 -63 -518 -69
l-297 -5 -6 -37 c-3 -20 -6 -221 -6 -448 0 -319 3 -414 13 -420 6 -4 152 -6
322 -5 502 6 663 -25 787 -149 74 -74 93 -124 93 -249 0 -99 -2 -110 -33 -172
-61 -125 -224 -239 -392 -274 -109 -23 -365 -15 -475 15 -168 47 -314 139
-448 282 l-85 91 -177 -154 c-98 -84 -197 -169 -220 -188 -111 -92 -282 -239
-299 -258 -18 -21 -18 -22 18 -86 80 -142 246 -318 393 -416 202 -133 442
-225 738 -281 157 -30 512 -38 680 -14 249 34 449 95 646 196 504 259 764 637
786 1139 6 158 -7 282 -43 406 -90 313 -269 540 -536 684 -43 23 -78 46 -78
51 0 4 14 16 31 25 57 29 153 104 227 177 181 178 283 411 298 685 11 193 -15
346 -86 513 -51 121 -120 219 -230 329 -234 235 -556 386 -923 435 -145 19
-403 18 -547 -1z"/>
</g>
</svg>
