<?xml version="1.0" standalone="no"?>
<!DOCTYPE svg PUBLIC "-//W3C//DTD SVG 20010904//EN"
 "http://www.w3.org/TR/2001/REC-SVG-20010904/DTD/svg10.dtd">
<svg version="1.0" xmlns="http://www.w3.org/2000/svg"
 width="305.000000pt" height="280.000000pt" viewBox="0 0 305.000000 280.000000"
 preserveAspectRatio="xMidYMid meet">

<g transform="translate(0.000000,280.000000) scale(0.100000,-0.100000)"
fill="#000000" stroke="none">
<path d="M1236 2619 c-211 -28 -449 -120 -581 -227 -62 -49 -77 -80 -51 -101
13 -11 20 -10 39 5 13 11 48 38 78 61 63 49 187 112 279 142 268 89 742 87
1017 -5 63 -21 191 -85 246 -123 369 -254 483 -808 302 -1467 -17 -62 -22
-100 -18 -135 8 -71 -12 -156 -74 -311 -39 -99 -66 -150 -95 -183 -54 -61
-168 -119 -168 -85 0 10 53 158 199 560 92 251 116 339 137 508 24 200 11 419
-33 553 -15 46 -22 54 -43 54 -22 0 -25 -4 -24 -35 1 -19 9 -71 18 -115 36
-171 31 -397 -14 -615 -19 -93 -48 -181 -59 -179 -3 0 -36 36 -74 79 -64 75
-71 80 -155 110 -48 18 -107 33 -132 33 -52 1 -114 -29 -144 -69 -10 -14 -72
-172 -137 -352 -132 -361 -139 -399 -96 -463 31 -46 72 -72 170 -107 81 -29
83 -30 157 -16 81 14 147 18 137 8 -3 -4 -1 -16 4 -27 10 -17 18 -19 66 -14
120 12 254 109 306 220 42 90 105 269 118 334 6 35 9 84 6 110 -3 26 1 67 8
92 27 92 74 349 85 455 40 426 -64 789 -290 1013 -152 151 -365 248 -634 288
-114 17 -431 19 -550 4z m871 -1560 c32 -12 62 -25 67 -29 4 -5 -47 -158 -114
-342 -67 -183 -134 -366 -148 -406 -25 -71 -27 -73 -54 -68 -16 3 -51 15 -79
28 -43 18 -55 29 -70 64 -19 41 -19 43 0 101 37 114 209 579 225 612 17 31 62
60 98 61 10 0 43 -10 75 -21z m204 -157 l56 -67 -110 -300 c-60 -165 -110
-301 -111 -302 -3 -4 -181 -31 -184 -29 -2 3 266 744 274 758 9 15 19 7 75
-60z"/>
<path d="M1320 2444 c-232 -29 -436 -106 -567 -214 -257 -212 -362 -622 -279
-1087 22 -121 24 -129 181 -560 79 -218 142 -399 140 -402 -10 -9 -84 20 -124
49 -56 41 -90 97 -144 238 -66 171 -67 177 -67 277 0 55 -6 109 -14 133 -51
143 -87 404 -88 622 0 291 51 479 185 681 14 21 15 28 4 43 -23 32 -51 10
-106 -81 -60 -103 -112 -253 -136 -401 -14 -83 -16 -143 -12 -300 5 -203 24
-343 68 -502 11 -42 24 -130 29 -200 7 -118 11 -133 64 -274 65 -173 79 -197
146 -260 66 -62 142 -96 217 -99 51 -2 59 1 68 20 11 27 28 28 135 8 80 -14
67 -16 215 37 96 36 153 111 142 191 -9 64 -139 408 -159 421 -14 8 -22 7 -34
-6 -16 -16 -12 -30 54 -212 40 -108 72 -207 72 -219 0 -48 -41 -89 -115 -118
-39 -15 -72 -25 -73 -24 -12 11 -300 821 -294 826 19 17 145 50 169 44 42 -10
78 -56 102 -128 25 -73 47 -95 76 -73 18 13 17 17 -9 90 -36 97 -61 134 -110
160 -55 28 -116 24 -217 -13 -83 -31 -89 -35 -154 -112 -37 -43 -71 -77 -75
-74 -16 10 -50 130 -71 250 -26 151 -28 389 -5 517 65 356 279 575 645 659
114 27 391 37 528 19 296 -37 518 -162 647 -363 43 -66 48 -70 71 -53 24 17
16 48 -35 124 -116 173 -316 291 -590 348 -73 15 -404 27 -480 18z m-415
-1854 c76 -209 136 -382 134 -384 -6 -6 -173 24 -181 32 -7 8 -218 585 -218
597 0 11 110 135 119 135 5 0 70 -171 146 -380z"/>
</g>
</svg>
