<?xml version="1.0" standalone="no"?>
<!DOCTYPE svg PUBLIC "-//W3C//DTD SVG 20010904//EN"
 "http://www.w3.org/TR/2001/REC-SVG-20010904/DTD/svg10.dtd">
<svg version="1.0" xmlns="http://www.w3.org/2000/svg"
 width="348.000000pt" height="266.000000pt" viewBox="0 0 348.000000 266.000000"
 preserveAspectRatio="xMidYMid meet">

<g transform="translate(0.000000,266.000000) scale(0.100000,-0.100000)"
fill="#000000" stroke="none">
<path d="M1216 2548 c-13 -18 -15 -47 -12 -158 4 -155 14 -194 69 -256 51 -58
103 -84 191 -96 95 -13 133 -33 167 -87 26 -41 29 -53 29 -133 l0 -88 -504 0
c-503 0 -505 0 -520 -21 -19 -27 -7 -61 25 -70 13 -4 585 -7 1270 -8 l1246 -1
27 -21 c40 -31 56 -71 56 -139 l0 -60 -1545 0 c-1229 0 -1545 3 -1546 13 -5
63 1 131 15 152 29 44 55 53 171 57 61 2 116 8 123 12 15 9 16 58 0 74 -16 16
-208 16 -262 0 -53 -16 -118 -81 -134 -134 -9 -31 -12 -209 -12 -708 0 -728
-2 -707 58 -769 15 -16 45 -39 67 -50 l40 -22 1475 0 c1428 0 1476 1 1513 19
49 24 89 64 113 113 18 36 19 70 19 708 0 732 1 714 -58 782 -67 76 -27 73
-823 73 l-712 0 -4 103 c-3 89 -7 108 -32 155 -46 83 -116 128 -224 141 -77
10 -115 26 -155 68 -39 41 -47 80 -47 220 0 97 -3 125 -16 137 -22 22 -50 20
-68 -6z m-636 -1349 l0 -109 -205 0 c-113 0 -205 3 -205 8 -1 4 -1 52 -2 107
l-1 100 199 5 c109 3 202 4 207 2 4 -2 7 -52 7 -113z m760 4 l0 -113 -140 0
-140 0 0 113 0 112 140 0 140 0 0 -112z m388 -3 l3 -110 -146 0 -145 0 0 109
c0 129 -17 117 165 114 l120 -2 3 -111z m382 -1 l0 -109 -145 0 -145 0 0 108
c0 60 2 111 4 113 2 2 68 3 145 1 l141 -3 0 -110z m768 2 l3 -111 -146 0 -145
0 0 113 0 112 142 -2 143 -2 3 -110z m380 -1 l3 -110 -146 0 -145 0 0 108 c0
60 2 111 4 113 2 2 67 3 143 2 l138 -2 3 -111z m-2298 0 l0 -110 -139 0 c-82
0 -141 4 -143 10 -1 5 -2 55 0 110 l3 100 140 0 139 0 0 -110z m1530 0 l0
-110 -140 0 -140 0 0 110 0 110 140 0 140 0 0 -110z m-1782 -318 l3 -112 -146
0 -145 0 0 108 c0 60 2 111 4 113 3 2 67 4 143 3 l138 -1 3 -111z m382 3 l0
-115 -140 0 c-105 0 -140 3 -141 13 -1 6 -1 55 -1 107 l0 95 138 5 c77 3 140
7 142 8 1 1 2 -50 2 -113z m770 -6 l0 -109 -145 0 -145 0 0 110 0 109 138 3
c75 2 140 2 145 0 4 -2 7 -52 7 -113z m378 2 l3 -111 -146 0 -145 0 0 108 c0
60 2 111 4 113 2 2 67 3 143 3 l138 -2 3 -111z m382 2 l0 -113 -140 0 -140 0
0 113 0 112 140 0 140 0 0 -112z m638 -162 l2 -271 -145 0 -146 0 3 112 3 112
46 1 c76 1 79 7 79 170 0 78 2 144 4 146 2 2 37 3 78 2 l73 -1 3 -271z m-2928
159 l0 -110 -80 0 c-44 0 -80 3 -80 8 -1 16 -1 197 -1 205 1 4 37 7 81 7 l80
0 0 -110z m1140 0 l0 -110 -140 0 -140 0 0 110 0 110 140 0 140 0 0 -110z
m1530 0 l0 -110 -140 0 -140 0 0 110 0 110 140 0 140 0 0 -110z m-1660 -317
l0 -113 -140 0 -140 0 0 113 0 112 140 0 140 0 0 -112z m388 -3 l3 -110 -146
0 -145 0 0 109 c0 129 -17 117 165 114 l120 -2 3 -111z m382 -1 c0 -107 0
-109 -23 -109 -29 0 -47 -18 -47 -46 0 -32 36 -54 87 -54 l43 0 0 -110 0 -110
-510 0 -510 0 0 113 0 112 356 -2 c229 -2 362 1 375 7 22 12 26 59 7 78 -7 7
-25 12 -40 12 l-28 0 0 108 c0 60 2 111 4 113 2 2 68 3 145 1 l141 -3 0 -110z
m768 2 l3 -111 -146 0 -145 0 0 113 0 112 142 -2 143 -2 3 -110z m-2298 -1 l0
-110 -205 0 c-157 0 -205 3 -206 13 -1 14 -1 201 0 205 1 1 93 2 206 2 l205 0
0 -110z m380 0 l0 -110 -140 0 -140 0 0 110 0 110 140 0 140 0 0 -110z m1530
0 l0 -110 -140 0 -140 0 0 110 0 110 140 0 140 0 0 -110z m66 -310 c0 -52 -1
-101 -4 -107 -3 -10 -41 -13 -143 -13 l-139 0 0 113 0 112 142 -5 143 -5 1
-95z m384 -11 l0 -109 -145 0 -145 0 0 110 0 109 138 3 c75 2 140 2 145 0 4
-2 7 -52 7 -113z m-2660 0 c0 -110 0 -110 -22 -104 -13 4 -38 22 -55 41 -31
31 -33 38 -33 104 l0 70 55 0 55 0 0 -111z m390 1 l0 -110 -145 0 -145 0 0
110 0 110 145 0 145 0 0 -110z m380 0 l0 -110 -145 0 -145 0 0 110 0 110 145
0 145 0 0 -110z m2210 54 c0 -114 -49 -164 -162 -164 l-68 0 0 110 0 110 115
0 115 0 0 -56z"/>
</g>
</svg>
