<?xml version="1.0" standalone="no"?>
<!DOCTYPE svg PUBLIC "-//W3C//DTD SVG 20010904//EN"
 "http://www.w3.org/TR/2001/REC-SVG-20010904/DTD/svg10.dtd">
<svg version="1.0" xmlns="http://www.w3.org/2000/svg"
 width="281.000000pt" height="197.000000pt" viewBox="0 0 281.000000 197.000000"
 preserveAspectRatio="xMidYMid meet">

<g transform="translate(0.000000,197.000000) scale(0.100000,-0.100000)"
fill="#000000" stroke="none">
<path d="M213 1813 c-18 -8 -40 -27 -50 -42 -17 -24 -18 -73 -21 -775 -2 -739
-2 -749 18 -791 39 -81 -56 -75 1254 -75 1267 0 1209 -3 1254 55 l22 28 0 759
c0 853 4 804 -74 838 -40 18 -92 19 -1207 19 -1027 0 -1168 -2 -1196 -16z
m2285 -81 c9 -6 -85 -82 -295 -239 -169 -127 -404 -303 -522 -392 -204 -154
-216 -161 -260 -161 -27 0 -57 7 -73 18 -15 9 -250 186 -524 392 l-497 375
1029 5 c566 3 1052 6 1079 7 28 2 56 -1 63 -5z m-1748 -440 c250 -187 474
-355 497 -372 99 -74 182 -90 266 -50 23 11 276 196 562 410 l520 390 3 -339
c1 -187 1 -496 0 -688 l-3 -348 -280 345 c-186 230 -287 346 -301 348 -23 3
-54 -21 -54 -43 0 -14 63 -94 387 -493 95 -117 173 -217 173 -223 0 -5 -421
-9 -1105 -9 -1050 0 -1105 1 -1096 18 5 9 54 71 108 137 197 240 431 532 441
552 14 25 -9 63 -38 63 -22 0 -58 -40 -359 -413 -123 -152 -226 -277 -228
-277 -1 0 -3 309 -3 686 l0 685 28 -20 c15 -11 232 -173 482 -359z"/>
</g>
</svg>
