<?xml version="1.0" standalone="no"?>
<!DOCTYPE svg PUBLIC "-//W3C//DTD SVG 20010904//EN"
 "http://www.w3.org/TR/2001/REC-SVG-20010904/DTD/svg10.dtd">
<svg version="1.0" xmlns="http://www.w3.org/2000/svg"
 width="284.000000pt" height="281.000000pt" viewBox="0 0 284.000000 281.000000"
 preserveAspectRatio="xMidYMid meet">

<g transform="translate(0.000000,281.000000) scale(0.100000,-0.100000)"
fill="#000000" stroke="none">
<path d="M2335 2694 c-99 -18 -209 -37 -245 -43 -36 -5 -258 -44 -495 -86
-236 -42 -482 -85 -545 -96 -943 -163 -910 -157 -917 -176 -3 -9 5 -72 18
-142 l24 -126 5 -920 5 -920 390 0 390 0 0 30 0 30 -358 3 -357 2 0 700 0 700
1180 0 1180 0 0 -700 0 -700 -354 0 c-375 0 -383 -1 -374 -47 3 -17 26 -18
398 -18 l395 0 0 915 0 915 -1010 5 -1010 5 185 32 c409 72 998 175 1220 214
444 77 561 98 570 104 6 3 10 21 10 38 -1 41 -44 290 -54 305 -10 17 -50 13
-251 -24z m201 -81 c4 -21 12 -69 20 -108 7 -38 12 -71 11 -72 -10 -9 -226
-39 -237 -32 -8 4 -55 48 -104 97 l-88 90 73 12 c41 7 117 20 169 30 144 27
148 27 156 -17z m-391 -137 c55 -52 98 -96 95 -98 -7 -6 -370 -68 -395 -68
-12 0 -58 38 -114 94 l-94 95 34 6 c158 29 347 63 359 64 8 0 60 -42 115 -93z
m-503 -88 c68 -63 95 -94 86 -99 -7 -3 -100 -21 -206 -40 l-193 -33 -94 94
c-52 52 -92 96 -89 99 5 6 342 68 378 70 10 1 61 -38 118 -91z m-501 -90 c55
-50 98 -93 96 -95 -2 -2 -95 -19 -206 -39 l-202 -36 -97 94 c-53 51 -96 95
-95 98 2 6 336 67 376 69 23 1 49 -17 128 -91z m-500 -90 c57 -54 98 -98 92
-98 -6 0 -99 -15 -205 -34 -106 -19 -214 -37 -239 -41 l-46 -7 -18 106 c-10
58 -16 108 -13 111 5 5 308 63 319 61 3 0 53 -45 110 -98z m59 -264 c0 -3 -37
-53 -81 -110 l-82 -104 -143 0 -144 0 0 110 0 110 225 0 c124 0 225 -3 225 -6z
m510 0 c0 -3 -37 -52 -82 -109 l-81 -104 -171 -3 c-94 -2 -187 -1 -208 2 l-36
5 86 108 85 107 204 0 c112 0 203 -3 203 -6z m510 0 c0 -3 -37 -53 -82 -110
l-83 -104 -209 0 -208 0 34 43 c19 23 58 72 87 110 l53 67 204 0 c112 0 204
-3 204 -6z m510 0 c0 -3 -37 -53 -82 -110 l-83 -104 -209 0 -208 0 34 43 c19
23 58 72 88 110 l54 67 203 0 c112 0 203 -3 203 -6z m380 -104 l0 -109 -216
-3 c-119 -2 -220 -1 -224 2 -4 3 30 53 77 113 l84 107 140 0 139 0 0 -110z"/>
<path d="M1245 1276 c-16 -7 -41 -26 -55 -41 l-25 -27 0 -258 0 -259 29 -30
c35 -36 86 -55 127 -47 16 3 69 29 117 57 291 173 302 181 318 212 9 17 17 48
17 68 0 72 -24 93 -233 217 -203 120 -241 133 -295 108z m261 -172 c99 -58
182 -111 186 -117 15 -23 8 -64 -14 -84 -13 -12 -102 -66 -198 -122 -182 -106
-197 -110 -232 -69 -16 18 -18 45 -18 240 l0 219 26 25 c18 19 32 24 48 20 13
-3 104 -53 202 -112z"/>
<path d="M1161 232 c-7 -14 -7 -24 2 -36 10 -14 26 -16 87 -14 l75 3 0 30 0
30 -77 3 c-67 2 -78 0 -87 -16z"/>
<path d="M1524 236 c-3 -8 -4 -23 -2 -33 3 -16 14 -18 83 -18 l80 0 0 30 0 30
-78 3 c-61 2 -78 0 -83 -12z"/>
</g>
</svg>
