<?xml version="1.0" standalone="no"?>
<!DOCTYPE svg PUBLIC "-//W3C//DTD SVG 20010904//EN"
 "http://www.w3.org/TR/2001/REC-SVG-20010904/DTD/svg10.dtd">
<svg version="1.0" xmlns="http://www.w3.org/2000/svg"
 width="288.000000pt" height="210.000000pt" viewBox="0 0 288.000000 210.000000"
 preserveAspectRatio="xMidYMid meet">

<g transform="translate(0.000000,210.000000) scale(0.100000,-0.100000)"
fill="#000000" stroke="none">
<path d="M246 1987 c-22 -12 -49 -35 -60 -50 -21 -28 -21 -35 -24 -773 l-2
-744 -48 0 c-26 0 -53 -5 -60 -12 -17 -17 -15 -118 3 -161 20 -48 80 -105 124
-118 24 -6 343 -9 956 -7 l920 3 3 24 c3 15 -3 30 -13 37 -14 10 -212 13 -928
14 -1005 0 -936 -4 -977 63 -11 18 -20 42 -20 55 l0 22 480 0 480 0 0 -43 c0
-24 5 -48 12 -55 9 -9 96 -12 330 -12 303 0 318 1 328 19 5 11 10 36 10 55 l0
36 480 0 480 0 0 -22 c0 -34 -35 -85 -69 -103 -23 -12 -65 -15 -189 -15 -173
0 -197 -6 -190 -51 l3 -24 182 -3 c164 -2 187 0 220 17 49 25 88 66 107 113
19 44 21 139 4 156 -7 7 -34 12 -60 12 l-48 0 0 728 0 728 -22 44 c-15 30 -37
53 -63 67 l-40 23 -1135 0 -1135 0 -39 -23z m2325 -86 l29 -29 0 -726 0 -726
-1180 0 -1180 0 0 730 0 731 26 24 27 25 1124 0 1125 0 29 -29z m-891 -1576
c0 -13 -36 -15 -260 -15 -224 0 -260 2 -260 15 0 13 36 15 260 15 224 0 260
-2 260 -15z"/>
<path d="M351 1824 c-17 -14 -35 -42 -41 -62 -13 -49 -13 -447 0 -473 12 -21
54 -26 67 -6 4 6 10 118 13 247 l5 235 1025 0 1025 0 0 -593 0 -592 -1024 0
c-564 0 -1026 2 -1027 3 -2 2 -4 99 -4 216 -1 117 -4 220 -7 227 -3 8 -14 19
-24 25 -14 7 -23 5 -39 -11 -20 -20 -21 -31 -20 -264 1 -171 5 -249 13 -260
11 -15 110 -16 1112 -14 l1100 3 3 638 2 639 -34 34 -34 34 -1040 0 -1040 0
-31 -26z"/>
</g>
</svg>
