<?xml version="1.0" standalone="no"?>
<!DOCTYPE svg PUBLIC "-//W3C//DTD SVG 20010904//EN"
 "http://www.w3.org/TR/2001/REC-SVG-20010904/DTD/svg10.dtd">
<svg version="1.0" xmlns="http://www.w3.org/2000/svg"
 width="164.000000pt" height="255.000000pt" viewBox="0 0 164.000000 255.000000"
 preserveAspectRatio="xMidYMid meet">

<g transform="translate(0.000000,255.000000) scale(0.100000,-0.100000)"
fill="#000000" stroke="none">
<path d="M223 2451 c-18 -11 -40 -35 -50 -53 -17 -31 -18 -92 -18 -1113 0
-1021 1 -1082 18 -1113 10 -18 32 -42 50 -52 31 -19 54 -20 603 -20 l571 0 34
23 c74 49 69 -32 69 1162 0 999 -1 1072 -18 1104 -9 19 -30 44 -45 55 -28 21
-40 21 -605 24 -559 2 -578 2 -609 -17z m1177 -81 c16 -16 20 -33 20 -80 l0
-60 -592 2 -593 3 -3 51 c-2 39 2 56 18 77 l21 27 555 0 c541 0 554 0 574 -20z
m20 -1010 l0 -790 -590 0 -590 0 0 790 0 790 590 0 590 0 0 -790z m0 -1008 c0
-123 -2 -141 -19 -156 -17 -16 -65 -17 -577 -17 l-559 -1 -17 22 c-15 19 -18
43 -18 156 l0 134 595 0 595 0 0 -138z"/>
<path d="M320 2331 c-14 -27 -3 -50 28 -58 54 -13 101 27 72 62 -19 23 -87 19
-100 -4z"/>
<path d="M602 2338 c-18 -18 -15 -46 7 -58 12 -6 102 -10 224 -10 220 0 232 3
225 52 l-3 23 -220 3 c-163 2 -224 -1 -233 -10z"/>
<path d="M704 416 c-28 -28 -34 -42 -34 -76 0 -47 13 -77 44 -102 16 -14 41
-18 114 -18 90 0 95 1 123 29 25 25 29 37 29 83 -1 91 -37 118 -160 118 -80 0
-83 -1 -116 -34z m200 -62 c9 -24 8 -31 -10 -48 -16 -16 -96 -22 -128 -10 -16
6 -22 54 -9 67 3 4 37 7 74 7 52 0 68 -4 73 -16z"/>
</g>
</svg>
