<?xml version="1.0" standalone="no"?>
<!DOCTYPE svg PUBLIC "-//W3C//DTD SVG 20010904//EN"
 "http://www.w3.org/TR/2001/REC-SVG-20010904/DTD/svg10.dtd">
<svg version="1.0" xmlns="http://www.w3.org/2000/svg"
 width="304.000000pt" height="262.000000pt" viewBox="0 0 304.000000 262.000000"
 preserveAspectRatio="xMidYMid meet">

<g transform="translate(0.000000,262.000000) scale(0.100000,-0.100000)"
fill="#000000" stroke="none">
<path d="M1790 2510 c-18 -18 -20 -33 -20 -153 0 -141 10 -177 50 -177 40 0
50 36 50 177 0 120 -2 135 -20 153 -11 11 -24 20 -30 20 -5 0 -19 -9 -30 -20z"/>
<path d="M1398 2439 c-10 -6 -18 -22 -18 -38 0 -21 21 -48 99 -124 54 -53 104
-97 110 -97 28 0 51 22 51 48 0 20 -22 49 -99 124 -54 54 -105 98 -112 98 -8
0 -22 -5 -31 -11z"/>
<path d="M2195 2440 c-11 -4 -59 -48 -107 -98 -65 -66 -88 -96 -88 -115 0 -25
24 -47 51 -47 6 0 56 44 110 97 78 76 99 103 99 125 0 17 -7 31 -19 38 -22 11
-20 11 -46 0z"/>
<path d="M1472 2051 c-8 -5 -51 -71 -96 -147 l-82 -139 -137 -3 -137 -3 0 43
c0 134 -138 220 -252 156 -50 -29 -78 -74 -85 -141 l-6 -54 -87 -6 c-149 -10
-235 -72 -260 -190 -8 -36 -10 -238 -8 -662 3 -603 3 -610 25 -650 12 -22 36
-54 55 -72 69 -67 3 -63 1119 -63 768 0 1022 3 1053 12 54 16 128 90 144 144
16 54 17 1260 1 1317 -14 51 -73 115 -129 140 -29 13 -77 22 -144 26 l-100 6
-83 140 c-46 76 -89 143 -96 147 -16 11 -679 10 -695 -1z m709 -192 l56 -94
-209 -3 c-114 -1 -302 -1 -417 0 l-210 3 58 95 57 95 285 5 c156 3 293 2 304
-1 11 -3 44 -46 76 -100z m-1285 8 c18 -16 28 -36 31 -65 l5 -42 -82 0 -83 0
6 42 c4 29 14 50 32 65 33 29 57 29 91 0z m1675 -230 c72 -48 70 -20 67 -712
l-3 -620 -22 -31 c-48 -68 14 -64 -1085 -64 -926 0 -995 1 -1027 18 -41 20
-71 58 -80 101 -3 18 -4 306 -1 641 l5 609 30 31 c17 18 39 36 50 40 11 5 473
9 1026 9 l1006 1 34 -23z"/>
<path d="M1695 1515 c-108 -24 -144 -49 -129 -90 12 -29 45 -33 104 -12 76 27
211 27 300 -1 241 -78 390 -331 339 -574 -38 -180 -178 -329 -358 -382 -66
-19 -188 -21 -256 -2 -178 47 -329 205 -365 383 -15 72 -9 180 16 256 21 66
14 90 -29 95 -34 4 -52 -23 -73 -113 -22 -94 -15 -246 16 -334 72 -203 251
-351 470 -388 81 -14 99 -14 183 0 220 38 405 195 470 402 29 93 31 272 3 355
-34 100 -79 173 -152 245 -143 143 -345 203 -539 160z"/>
<path d="M696 1354 c-9 -8 -16 -23 -16 -33 0 -36 20 -41 172 -41 135 0 148 2
158 19 14 27 13 37 -6 55 -23 23 -285 23 -308 0z"/>
<path d="M1408 1359 c-36 -21 -16 -79 27 -79 42 0 59 44 29 74 -18 18 -32 20
-56 5z"/>
<path d="M1691 1299 c-185 -65 -289 -259 -244 -454 18 -79 50 -131 118 -193
76 -69 145 -96 255 -96 107 0 178 26 251 91 90 81 132 176 131 292 -2 167
-102 308 -258 361 -74 26 -180 25 -253 -1z m218 -86 c62 -20 131 -78 168 -140
20 -34 27 -63 31 -118 4 -63 1 -80 -23 -134 -89 -197 -342 -236 -484 -75 -53
61 -75 128 -69 213 6 80 30 130 91 190 77 74 182 98 286 64z"/>
<path d="M1780 1100 c-19 -35 -3 -59 46 -71 49 -13 84 -48 84 -85 0 -49 57
-72 84 -33 36 52 -27 168 -107 198 -47 18 -95 14 -107 -9z"/>
</g>
</svg>
