<?xml version="1.0" standalone="no"?>
<!DOCTYPE svg PUBLIC "-//W3C//DTD SVG 20010904//EN"
 "http://www.w3.org/TR/2001/REC-SVG-20010904/DTD/svg10.dtd">
<svg version="1.0" xmlns="http://www.w3.org/2000/svg"
 width="307.000000pt" height="356.000000pt" viewBox="0 0 307.000000 356.000000"
 preserveAspectRatio="xMidYMid meet">

<g transform="translate(0.000000,356.000000) scale(0.100000,-0.100000)"
fill="#000000" stroke="none">
<path d="M2160 3385 c-73 -33 -111 -89 -114 -169 -1 -28 -10 -65 -19 -83 -19
-36 -22 -108 -6 -150 35 -94 152 -139 247 -96 20 9 60 18 88 19 60 2 102 22
137 63 74 89 53 217 -46 276 -23 13 -51 40 -62 61 -40 75 -149 113 -225 79z
m122 -105 c16 -12 28 -34 32 -59 6 -37 9 -40 46 -46 49 -8 80 -44 80 -92 0
-66 -68 -102 -134 -71 -23 10 -29 8 -50 -15 -33 -35 -67 -42 -105 -22 -57 29
-66 91 -20 137 27 28 29 34 20 61 -17 46 -13 72 14 101 30 32 81 35 117 6z"/>
<path d="M843 3289 c-18 -5 -34 -13 -38 -18 -3 -5 -22 -7 -44 -4 -87 12 -173
-54 -187 -143 -4 -26 -13 -59 -20 -73 -22 -42 -18 -123 9 -161 38 -57 71 -75
135 -74 159 4 197 9 235 33 42 26 77 85 77 129 0 16 8 36 18 46 27 24 45 91
37 138 -8 47 -56 105 -102 124 -37 16 -73 16 -120 3z m121 -131 c13 -38 0 -76
-33 -93 -27 -13 -29 -18 -21 -45 21 -73 -44 -125 -111 -89 -16 8 -26 7 -44 -5
-25 -17 -72 -21 -91 -8 -14 9 -34 47 -34 65 0 8 10 27 22 42 16 20 21 39 19
66 -5 68 53 98 119 64 27 -14 30 -14 40 5 6 11 23 26 38 34 35 18 83 1 96 -36z"/>
<path d="M1700 2961 c-25 -14 -46 -18 -75 -14 -26 3 -55 -1 -79 -11 -37 -15
-40 -15 -71 4 -114 71 -259 0 -274 -135 -6 -52 -8 -55 -51 -78 -34 -18 -51
-36 -70 -73 -24 -47 -26 -49 -64 -46 -22 2 -60 -4 -85 -14 -25 -10 -68 -18
-96 -18 -66 -1 -121 -35 -146 -90 -10 -23 -19 -51 -19 -62 0 -12 -10 -43 -21
-70 -19 -41 -21 -56 -12 -95 l9 -47 -37 -11 c-107 -32 -160 -156 -109 -256
l20 -39 -26 -52 c-14 -28 -27 -76 -30 -105 -3 -39 33 -273 128 -844 l133 -790
753 -3 c413 -1 752 1 752 4 0 3 59 359 130 791 72 432 130 804 130 826 -1 23
-7 60 -15 82 -21 58 -18 90 10 134 31 46 41 99 27 139 -7 20 -7 42 1 70 19 73
-25 164 -94 192 -28 12 -30 16 -24 46 21 114 -98 228 -203 196 -30 -10 -39 -8
-74 16 -30 19 -57 27 -102 30 -34 2 -70 10 -79 17 -17 12 -17 15 5 56 43 84
20 188 -54 237 -53 35 -138 41 -188 13z m148 -107 c34 -38 29 -80 -14 -120
-35 -33 -35 -35 -27 -86 7 -47 11 -53 35 -58 30 -5 63 -30 70 -51 3 -10 14
-10 51 -1 60 15 101 0 145 -53 l31 -38 31 27 c38 32 76 33 107 4 39 -37 26
-92 -30 -124 -12 -8 -13 -18 -4 -64 6 -30 12 -56 13 -58 1 -2 20 6 43 17 50
26 62 26 95 0 30 -24 35 -67 10 -104 -15 -23 -15 -27 0 -51 24 -36 17 -83 -16
-107 -27 -20 -29 -20 -65 -3 -99 48 -242 24 -323 -55 l-41 -40 -51 46 c-62 56
-135 80 -219 72 -66 -6 -148 -46 -185 -90 l-25 -30 -37 35 c-115 111 -286 116
-401 12 l-48 -43 -41 38 c-79 75 -202 100 -304 61 -29 -11 -54 -20 -55 -20 0
0 -6 14 -12 30 -12 35 -7 56 22 88 25 27 81 30 116 6 22 -16 24 -15 45 10 11
15 41 39 64 55 l44 29 -54 17 c-29 9 -61 26 -71 37 -23 27 -22 71 3 93 15 13
20 29 18 61 -2 74 55 107 121 70 22 -12 26 -11 50 16 38 42 86 41 154 -5 l54
-35 23 31 c22 29 23 32 7 60 -33 57 -10 113 48 119 17 2 44 17 62 33 29 28 31
32 18 55 -21 37 -18 65 11 99 20 25 34 31 64 31 30 0 44 -6 64 -31 14 -17 26
-34 26 -37 0 -4 5 -14 10 -22 8 -12 16 -7 49 28 31 33 45 42 73 42 18 0 44 -7
57 -16 22 -16 24 -15 54 14 18 16 39 32 47 35 26 10 64 -3 88 -29z m-40 -961
c41 -20 89 -83 98 -128 5 -27 -94 -1366 -112 -1507 l-6 -48 -134 0 -135 0 3
783 c3 714 4 785 20 813 23 41 82 92 116 100 15 3 32 7 37 8 21 5 80 -6 113
-21z m482 2 c37 -19 88 -80 96 -113 3 -15 7 -33 10 -40 2 -7 -53 -352 -121
-767 -69 -415 -125 -757 -125 -760 0 -3 -58 -5 -130 -5 -117 0 -130 2 -130 18
0 17 49 648 90 1152 5 63 14 178 20 255 12 151 28 199 81 237 59 44 149 54
209 23z m-1457 4 c33 -17 77 -60 93 -91 9 -17 20 -99 29 -215 8 -104 17 -215
20 -248 12 -140 76 -958 82 -1042 l6 -93 -129 0 -129 0 -58 348 c-129 772
-187 1136 -187 1174 0 66 40 128 105 162 35 18 136 21 168 5z m485 -3 c38 -20
78 -65 96 -108 14 -33 16 -134 16 -808 l0 -770 -135 0 c-90 0 -135 4 -135 11
0 6 -13 178 -30 382 -95 1194 -92 1142 -75 1184 19 44 48 78 90 104 37 23 133
26 173 5z"/>
<path d="M1420 2528 c-51 -14 -94 -50 -115 -97 -12 -27 -24 -41 -37 -41 -45 0
-117 -60 -137 -113 -19 -51 -15 -57 38 -57 44 0 49 3 55 25 13 51 60 64 145
39 23 -7 23 -6 16 44 -6 48 -5 54 23 82 39 38 80 40 115 4 15 -14 29 -35 32
-45 8 -24 14 -24 45 1 34 26 56 25 76 -5 13 -20 25 -25 55 -25 48 0 56 15 35
64 -19 45 -68 76 -123 76 -28 0 -54 8 -79 25 -20 14 -44 25 -53 25 -9 0 -25 2
-36 4 -11 3 -36 0 -55 -6z"/>
<path d="M1884 2285 c-32 -16 -66 -25 -97 -25 -26 0 -61 -7 -77 -15 -37 -19
-76 -71 -85 -112 l-7 -33 51 0 c38 0 51 4 51 15 0 19 39 55 60 55 10 0 33 -11
53 -24 l36 -25 23 40 c35 62 109 67 131 9 10 -28 15 -30 59 -30 52 0 53 1 37
51 -16 46 -46 78 -94 100 -54 25 -82 24 -141 -6z"/>
<path d="M1716 1675 c-3 -27 -7 -75 -8 -105 l-3 -55 46 -3 46 -3 6 68 c4 37 7
84 7 104 0 37 -1 37 -45 41 l-44 3 -5 -50z"/>
<path d="M1690 1353 c0 -5 -7 -84 -15 -177 -8 -94 -13 -171 -12 -172 1 -1 22
-4 47 -5 l45 -4 6 65 c4 36 10 118 14 183 l8 117 -47 0 c-25 0 -46 -3 -46 -7z"/>
<path d="M1626 563 c-8 -65 -1 -73 56 -73 l36 0 4 60 c3 66 0 70 -56 70 -33 0
-33 -1 -40 -57z"/>
<path d="M693 1723 c-41 -5 -41 -7 -5 -218 l28 -160 40 3 c21 2 42 7 46 10 4
4 -6 86 -22 182 -16 96 -30 178 -30 183 0 4 -6 6 -12 5 -7 0 -28 -3 -45 -5z"/>
<path d="M843 803 c-39 -5 -38 -2 -16 -133 l16 -100 36 0 c65 0 64 -7 26 208
-3 17 -11 31 -18 30 -7 0 -27 -3 -44 -5z"/>
<path d="M2776 2925 c-15 -8 -51 -15 -78 -15 -93 0 -157 -54 -174 -145 -4 -22
-13 -54 -21 -72 -45 -110 27 -233 139 -234 77 -1 200 11 222 23 53 27 96 86
96 132 0 14 11 42 25 62 80 118 5 264 -137 264 -23 0 -56 -7 -72 -15z m118
-96 c38 -30 36 -81 -4 -110 -26 -20 -29 -27 -27 -71 2 -42 -2 -53 -22 -69 -27
-22 -56 -24 -91 -5 -21 12 -27 12 -49 -5 -32 -26 -67 -24 -96 6 -31 30 -32 56
-1 92 17 21 22 36 19 61 -10 66 47 108 106 77 32 -16 33 -16 67 14 41 36 62
38 98 10z"/>
<path d="M313 2689 c-18 -5 -35 -14 -38 -19 -3 -6 -33 -10 -65 -10 -67 0 -105
-12 -139 -43 -32 -30 -61 -94 -61 -137 0 -51 38 -120 83 -150 21 -14 46 -41
54 -59 21 -41 66 -76 120 -90 49 -13 82 -7 140 25 46 26 83 89 83 141 0 17 8
37 20 48 58 53 54 188 -8 248 -52 50 -118 66 -189 46z m108 -102 c50 -38 50
-90 1 -136 -35 -33 -37 -40 -30 -69 15 -57 -27 -112 -87 -112 -37 0 -85 50
-85 88 0 25 -5 30 -32 36 -49 10 -78 43 -78 88 0 68 63 105 127 74 35 -16 35
-16 69 14 37 32 86 40 115 17z"/>
</g>
</svg>
