<?xml version="1.0" standalone="no"?>
<!DOCTYPE svg PUBLIC "-//W3C//DTD SVG 20010904//EN"
 "http://www.w3.org/TR/2001/REC-SVG-20010904/DTD/svg10.dtd">
<svg version="1.0" xmlns="http://www.w3.org/2000/svg"
 width="243.000000pt" height="291.000000pt" viewBox="0 0 243.000000 291.000000"
 preserveAspectRatio="xMidYMid meet">

<g transform="translate(0.000000,291.000000) scale(0.100000,-0.100000)"
fill="#000000" stroke="none">
<path d="M372 2729 c-50 -25 -98 -80 -113 -129 -6 -19 -9 -80 -7 -135 l3 -100
30 0 30 0 5 107 c5 115 15 138 74 182 27 21 35 21 846 21 811 0 819 0 846 -21
15 -11 37 -33 48 -48 21 -27 21 -34 23 -1144 l3 -1117 -23 -39 c-46 -81 9 -76
-895 -76 -770 0 -804 1 -840 19 -20 11 -46 34 -57 53 -20 32 -20 55 -25 1003
l-5 970 -30 0 -30 0 -3 -965 c-2 -674 0 -976 8 -1003 14 -47 61 -102 114 -130
l41 -22 810 0 c446 0 826 3 846 8 45 9 114 67 139 118 20 37 20 65 20 1169 0
1238 3 1168 -58 1234 -15 16 -45 37 -67 47 -38 18 -83 19 -865 19 -820 0 -825
0 -868 -21z"/>
<path d="M1067 2609 c-37 -21 -8 -77 33 -64 13 4 20 15 20 30 0 29 -28 47 -53
34z"/>
<path d="M1206 2604 c-19 -18 -19 -20 -6 -45 10 -17 22 -19 110 -19 115 0 130
4 130 36 0 34 -28 44 -129 44 -68 0 -93 -4 -105 -16z"/>
<path d="M411 2466 c-8 -9 -10 -215 -9 -752 l3 -739 30 0 30 0 3 713 2 712
770 0 770 0 0 -269 c0 -221 3 -271 14 -280 11 -9 20 -10 35 -1 21 10 21 18 21
308 0 219 -3 301 -12 310 -19 19 -1641 17 -1657 -2z"/>
<path d="M2027 1759 c-16 -9 -17 -51 -17 -584 l0 -575 -770 0 -770 0 0 139 c0
132 -1 140 -20 146 -44 14 -50 -6 -50 -179 0 -113 4 -166 12 -174 17 -17 1639
-17 1656 0 9 9 12 159 12 615 0 567 -1 603 -18 612 -11 6 -24 6 -35 0z"/>
<path d="M1195 491 c-74 -32 -90 -135 -29 -192 20 -19 36 -24 75 -24 41 0 53
5 80 32 68 67 28 179 -67 189 -21 2 -48 0 -59 -5z m70 -74 c13 -10 16 -21 11
-40 -5 -21 -12 -27 -35 -27 -40 0 -54 35 -25 64 19 19 25 20 49 3z"/>
</g>
</svg>
