<?xml version="1.0" standalone="no"?>
<!DOCTYPE svg PUBLIC "-//W3C//DTD SVG 20010904//EN"
 "http://www.w3.org/TR/2001/REC-SVG-20010904/DTD/svg10.dtd">
<svg version="1.0" xmlns="http://www.w3.org/2000/svg"
 width="331.000000pt" height="245.000000pt" viewBox="0 0 331.000000 245.000000"
 preserveAspectRatio="xMidYMid meet">

<g transform="translate(0.000000,245.000000) scale(0.100000,-0.100000)"
fill="#000000" stroke="none">
<path d="M273 2310 c-18 -10 -40 -31 -50 -47 -17 -26 -18 -74 -18 -863 0 -779
1 -837 18 -867 28 -51 62 -63 207 -70 72 -3 130 -8 130 -10 0 -2 -16 -28 -36
-57 -45 -68 -55 -112 -39 -160 17 -47 33 -66 72 -83 47 -19 96 -16 133 10 19
12 76 83 127 157 72 103 100 136 121 141 36 9 1407 11 1493 3 l67 -7 90 -131
c109 -158 127 -177 184 -183 92 -11 158 48 158 138 0 37 -8 58 -41 109 -22 34
-38 64 -36 66 2 2 60 5 128 7 140 4 177 16 206 70 17 30 18 88 18 869 0 830 0
837 -21 865 -11 15 -36 36 -55 45 -32 17 -121 18 -1429 18 -1365 0 -1396 0
-1427 -20z m2829 -77 c17 -15 18 -54 18 -838 0 -625 -3 -824 -12 -833 -19 -19
-2791 -17 -2807 1 -8 10 -11 244 -11 832 -1 757 0 819 16 836 17 18 58 19
1397 19 1270 0 1382 -1 1399 -17z m-2299 -1786 c-42 -72 -151 -218 -166 -223
-45 -14 -86 21 -78 66 1 8 27 51 57 95 l54 80 70 -3 c50 -3 68 -7 63 -15z
m1999 -73 c51 -76 56 -88 47 -112 -12 -32 -26 -42 -61 -42 -22 0 -38 17 -107
116 -45 63 -81 117 -81 120 0 2 33 4 73 4 l72 0 57 -86z"/>
<path d="M400 2121 c-7 -13 -10 -259 -10 -730 0 -632 2 -711 16 -725 14 -14
145 -16 1299 -16 1154 0 1285 2 1299 16 14 14 16 93 16 725 0 471 -3 717 -10
730 -11 19 -36 19 -1305 19 -1269 0 -1294 0 -1305 -19z m2538 -723 l-3 -663
-1230 0 -1230 0 -3 663 -2 662 1235 0 1235 0 -2 -662z"/>
<path d="M1142 1673 c-6 -10 -6 -28 -1 -40 8 -22 14 -23 109 -23 l100 0 0
-249 c0 -218 2 -250 16 -255 24 -9 31 -8 49 10 13 14 16 47 15 238 0 121 -1
229 0 238 0 15 13 18 96 20 79 2 99 6 108 21 8 12 8 22 0 35 -10 15 -35 17
-247 20 -217 2 -237 1 -245 -15z"/>
<path d="M1782 1678 c-7 -7 -12 -17 -12 -22 0 -6 50 -131 111 -278 115 -275
131 -301 166 -266 12 13 148 327 208 484 27 70 19 99 -25 92 -20 -2 -32 -21
-72 -118 -27 -63 -67 -159 -90 -213 -22 -54 -44 -95 -49 -90 -4 4 -44 96 -89
203 -45 107 -86 200 -92 207 -13 16 -40 17 -56 1z"/>
</g>
</svg>
