<?xml version="1.0" standalone="no"?>
<!DOCTYPE svg PUBLIC "-//W3C//DTD SVG 20010904//EN"
 "http://www.w3.org/TR/2001/REC-SVG-20010904/DTD/svg10.dtd">
<svg version="1.0" xmlns="http://www.w3.org/2000/svg"
 width="295.000000pt" height="278.000000pt" viewBox="0 0 295.000000 278.000000"
 preserveAspectRatio="xMidYMid meet">

<g transform="translate(0.000000,278.000000) scale(0.100000,-0.100000)"
fill="#000000" stroke="none">
<path d="M765 2571 c-72 -18 -143 -85 -171 -163 -39 -112 16 -247 124 -300 45
-22 58 -23 357 -28 227 -4 316 -8 333 -18 33 -19 69 -82 77 -134 l7 -45 -74
-5 c-122 -8 -218 -74 -251 -173 -16 -46 -31 -52 -138 -54 -168 -3 -327 -97
-412 -242 -15 -26 -85 -199 -154 -385 l-127 -339 0 -105 c-1 -98 1 -109 31
-172 78 -166 260 -265 433 -237 118 19 240 99 296 196 l26 44 47 -8 c117 -20
192 9 236 93 l21 40 109 -1 c71 -1 110 -5 112 -12 10 -30 66 -94 95 -109 36
-19 101 -23 165 -10 41 8 42 8 61 -30 28 -56 123 -141 188 -170 83 -37 181
-48 260 -29 36 8 77 21 93 29 52 27 131 96 158 139 15 23 32 45 36 48 5 3 8
10 8 15 -1 16 12 49 22 55 22 15 6 217 -22 284 -5 11 -14 34 -21 52 -19 49
-45 69 -75 55 -32 -15 -31 -28 5 -132 51 -147 34 -259 -56 -359 -145 -161
-384 -137 -514 51 l-43 63 16 61 c16 64 14 92 -11 134 -34 55 -77 91 -127 106
-44 12 -57 12 -98 0 -67 -20 -92 -39 -122 -91 l-27 -45 -109 0 c-65 0 -110 4
-110 10 -1 6 -2 15 -3 20 -3 22 -81 90 -115 100 -164 45 -296 -83 -251 -245
12 -43 11 -46 -19 -94 -87 -135 -216 -198 -348 -171 -71 15 -103 31 -154 77
-35 32 -90 117 -94 148 -1 6 -3 12 -4 15 -1 3 -4 38 -6 78 -3 48 -1 72 6 72 6
0 9 6 6 14 -4 10 90 282 130 376 3 8 7 21 9 28 1 6 11 31 22 55 31 67 65 158
65 173 0 8 4 14 9 14 5 0 7 4 3 9 -3 5 2 17 11 25 8 9 13 16 9 16 -8 0 11 23
72 86 31 33 74 65 108 80 l57 27 604 -2 605 -1 52 -26 c29 -15 54 -30 55 -35
2 -5 9 -9 17 -9 27 0 92 -89 140 -193 51 -112 76 -136 110 -107 21 18 19 40
-15 124 -42 107 -83 169 -150 225 -103 85 -200 121 -335 121 -44 0 -85 4 -91
8 -6 4 -16 23 -23 43 -30 93 -130 167 -240 176 l-71 6 -5 36 c-17 112 -61 178
-149 221 l-61 30 -295 0 c-276 1 -296 2 -327 21 -48 30 -72 76 -74 142 -2 47
2 62 24 90 30 39 86 69 125 67 15 -1 183 -2 374 -1 301 1 349 3 362 17 20 20
20 38 0 58 -13 14 -62 16 -392 15 -207 -1 -391 -4 -407 -8z m946 -796 c24 -9
52 -23 62 -33 24 -22 50 -72 42 -80 -10 -10 -404 -15 -491 -7 -42 4 -74 11
-74 17 0 24 55 81 94 99 55 25 300 27 367 4z m-414 -1107 c66 -73 46 -162 -39
-182 -35 -8 -98 17 -98 39 0 9 -4 13 -10 10 -5 -3 -10 -3 -11 2 -9 81 -7 97
21 125 37 37 106 40 137 6z m591 6 c86 -60 51 -186 -53 -188 -59 -1 -96 35
-102 101 -3 38 1 48 26 74 34 33 91 40 129 13z"/>
<path d="M1010 1394 c-29 -12 -69 -57 -75 -86 -5 -21 -17 -33 -43 -44 -76 -31
-111 -95 -92 -165 12 -42 56 -87 95 -98 20 -5 32 -17 38 -37 23 -72 100 -115
168 -95 40 12 85 57 95 95 3 14 23 30 54 44 119 55 114 206 -9 255 -30 12 -41
23 -46 45 -11 50 -57 85 -117 88 -29 2 -60 1 -68 -2z m99 -110 c6 -14 11 -38
11 -54 0 -33 23 -50 66 -50 30 0 64 -25 64 -47 0 -23 -39 -53 -69 -53 -47 0
-61 -10 -61 -40 0 -67 -37 -103 -80 -80 -14 8 -20 21 -20 46 0 56 -15 74 -60
74 -27 0 -47 7 -60 20 -24 24 -24 29 -4 58 11 16 25 22 54 22 46 0 70 26 70
77 0 59 65 79 89 27z"/>
<path d="M1632 1260 c-70 -43 -93 -135 -49 -200 63 -95 191 -95 249 -1 42 67
18 163 -50 204 -40 23 -109 22 -150 -3z m110 -82 c30 -24 31 -56 3 -83 -27
-28 -59 -27 -82 3 -41 51 28 120 79 80z"/>
<path d="M2050 1260 c-96 -51 -98 -192 -4 -251 96 -59 224 12 224 125 0 111
-120 180 -220 126z m112 -87 c33 -30 17 -84 -29 -98 -32 -9 -77 36 -68 68 14
46 63 61 97 30z"/>
<path d="M2526 1038 c-13 -19 -14 -25 -2 -43 16 -25 42 -31 61 -15 19 16 19
45 -1 64 -21 22 -40 20 -58 -6z"/>
</g>
</svg>
