<?xml version="1.0" standalone="no"?>
<!DOCTYPE svg PUBLIC "-//W3C//DTD SVG 20010904//EN"
 "http://www.w3.org/TR/2001/REC-SVG-20010904/DTD/svg10.dtd">
<svg version="1.0" xmlns="http://www.w3.org/2000/svg"
 width="321.000000pt" height="291.000000pt" viewBox="0 0 321.000000 291.000000"
 preserveAspectRatio="xMidYMid meet">

<g transform="translate(0.000000,291.000000) scale(0.100000,-0.100000)"
fill="#000000" stroke="none">
<path d="M1104 2806 c-44 -19 -100 -78 -114 -120 l-12 -36 -388 0 -388 0 -31
-31 c-17 -17 -31 -40 -31 -52 0 -12 0 -447 0 -966 0 -1047 -4 -978 65 -1007
28 -11 128 -14 550 -14 283 0 515 -3 515 -7 0 -4 -12 -44 -27 -90 l-27 -83
-81 0 c-92 0 -132 -18 -165 -72 -32 -52 -27 -103 14 -144 l34 -34 561 0 c605
0 604 0 632 52 16 29 13 91 -5 126 -26 50 -62 66 -159 72 l-89 5 -28 88 -28
87 520 0 c575 0 569 -1 602 63 16 29 17 109 14 990 l-3 959 -33 29 -32 29
-389 0 -389 0 -7 28 c-9 41 -63 102 -109 123 -38 17 -74 19 -491 18 -356 0
-456 -3 -481 -13z m306 -70 c0 -2 -7 -20 -16 -41 -20 -48 -20 -121 0 -169 9
-21 16 -40 16 -42 0 -11 -234 -3 -263 10 -102 43 -115 171 -24 226 27 17 51
20 160 20 70 0 127 -2 127 -4z m239 -10 c79 -41 89 -152 20 -210 -83 -70 -209
-13 -209 94 0 96 104 159 189 116z m395 -1 c64 -31 90 -128 49 -183 -37 -50
-76 -62 -210 -62 l-121 0 20 53 c23 59 20 125 -7 176 l-16 31 127 0 c92 0 135
-4 158 -15z m-1049 -192 c21 -50 61 -91 110 -114 37 -17 73 -19 480 -19 l440
0 51 24 c55 26 87 59 106 112 l12 34 372 0 c305 0 374 -2 383 -14 8 -9 11 -52
9 -127 l-3 -114 -994 -5 c-932 -5 -995 -6 -1005 -22 -8 -13 -8 -23 0 -35 11
-17 71 -18 1008 -21 l996 -2 -2 -612 -3 -611 -146 2 c-162 3 -195 -2 -210 -31
-8 -15 -7 -24 7 -39 16 -17 32 -19 186 -19 l168 0 0 -119 c0 -66 -4 -122 -10
-126 -12 -7 -2709 -7 -2721 1 -5 3 -9 59 -9 125 l0 119 1113 0 c1206 0 1157
-2 1144 53 -6 20 -15 27 -48 32 -22 4 -65 4 -94 0 l-54 -6 -20 39 c-26 50 -72
97 -121 122 -21 11 -116 36 -211 55 -95 19 -173 36 -175 38 -1 1 -5 16 -9 34
-6 29 -2 37 45 85 69 71 108 128 118 174 4 22 5 113 2 204 -5 145 -9 170 -28
208 -35 66 -88 119 -150 149 -78 38 -192 39 -267 3 -63 -31 -124 -91 -156
-155 -22 -46 -24 -63 -27 -227 -4 -212 1 -228 102 -335 53 -56 66 -77 66 -102
0 -17 -6 -34 -12 -36 -7 -3 -87 -20 -178 -39 -91 -19 -178 -40 -195 -46 -48
-18 -94 -59 -128 -112 l-32 -49 -343 -2 -342 -2 0 613 0 612 300 0 c289 0 300
1 310 20 8 14 8 26 0 40 -10 19 -21 20 -310 20 l-300 0 0 123 c0 68 3 127 7
130 3 4 174 7 380 7 l373 0 15 -37z m706 -504 c48 -24 103 -88 117 -138 7 -22
12 -103 12 -189 l0 -150 -37 -49 c-41 -53 -104 -113 -140 -132 -30 -15 -88
-14 -121 3 -37 20 -136 123 -156 163 -19 38 -23 251 -5 332 11 55 54 121 95
147 66 44 163 49 235 13z m-33 -775 c4 -26 -40 -64 -74 -64 -34 0 -75 40 -68
67 5 19 12 21 72 20 60 -2 67 -4 70 -23z m-173 -109 c60 -46 149 -45 204 1
l30 25 178 -35 c130 -27 187 -43 215 -61 40 -27 64 -60 49 -69 -14 -9 -1138
-4 -1152 5 -17 10 30 62 72 79 29 12 318 77 352 79 10 1 33 -10 52 -24z m341
-637 c12 -36 25 -76 29 -87 6 -20 2 -21 -146 -23 -132 -3 -153 -5 -163 -20 -8
-13 -8 -23 0 -35 10 -16 38 -18 281 -23 293 -5 307 -8 301 -59 l-3 -26 -541
-3 c-480 -2 -543 0 -554 13 -11 13 -10 20 7 43 l20 27 176 3 c164 2 177 4 187
22 8 14 8 26 0 40 -9 16 -21 20 -65 20 -37 0 -55 4 -55 12 0 7 12 48 26 91
l26 77 225 -2 226 -3 23 -67z"/>
</g>
</svg>
