<svg version="1.0" xmlns="http://www.w3.org/2000/svg" width="224" height="282.667" viewBox="0 0 168 212"><linearGradient id="a" x1="0%" y1="50%" x2="100%" y2="50%"><stop offset="0%" stop-color="#00978b"/><stop offset="41%" stop-color="#00978b"/><stop offset="63%" stop-color="#008885"/><stop offset="100%" stop-color="#008885"/></linearGradient><g transform="matrix(.1 0 0 -.1 0 212)" fill="url(#a)"><path d="M381 2097c-6-8-12-79-13-183l-3-169-169-3c-104-1-175-7-183-13-11-9-13-166-13-848C1 78 1 44 19 23L38 0h625c506 0 627 3 636 13 6 8 12 79 13 183l3 169 180 6c99 3 181 6 183 7 1 1 2 123 2 271 0 236-2 270-16 275-28 11-52 6-58-10-3-9-6-119-6-245V439l-142 3-143 3-3 465-2 466-190 188-189 189-243-4-243-4v290l410 2 410 2 167-167 168-166v-247c0-268 2-278 55-265l25 6v533l-189 188-189 189H847c-365 0-457-3-466-13zm197-427h312v-163c0-113 4-167 12-175s62-12 175-12h163V80H80v793c0 437 3 797 8 801 4 4 45 5 92 2s226-5 398-6zm499-162c57-57 103-106 103-111 0-4-48-6-107-5l-108 3-3 108c-1 59 1 107 5 107s54-46 110-102z"/><path d="M204 1368c-14-45 9-49 290-46 225 3 260 5 269 19 6 9 7 24 4 33-6 14-36 16-281 16-273 0-275 0-282-22zm5-214c-9-11-10-20-2-32 9-15 52-17 451-20 438-2 441-2 452 19 26 48 22 49-450 49-387 0-439-2-451-16zm0-220c-9-11-10-20-2-32 9-15 52-17 450-20 374-2 442 0 452 12 9 11 10 20 1 35-11 21-16 21-449 21-388 0-440-2-452-16zm7-217c-13-10-16-20-12-35l7-22h449c399 0 449 2 454 16 8 21 8 20-10 38-14 14-68 16-443 16-339 0-431-3-445-13zm-12-239c-14-46 3-48 379-46 309 3 351 5 360 19 6 9 7 24 4 33-6 14-43 16-371 16H211l-7-22zm853 15c-13-12-7-51 8-57 34-13 66 24 44 50-12 15-41 19-52 7z"/></g></svg>